<svg xmlns="http://www.w3.org/2000/svg" width="199.846" height="29.448" viewBox="0 0 199.846 29.448">
  <g id="Group_70" data-name="Group 70" transform="translate(2345.11 529.886)">
    <path id="Path_307" data-name="Path 307" d="M-2329.628-529.886l4.784,9.694,10.7,1.554-7.741,7.545,1.827,10.654-9.568-5.03-9.568,5.03,1.827-10.654-7.741-7.545,10.7-1.554Z" transform="translate(0 0)" fill="#b77537"/>
    <path id="Path_308" data-name="Path 308" d="M-2170.829-529.886l4.784,9.694,10.7,1.554-7.741,7.545,1.827,10.654-9.569-5.03-9.568,5.03,1.827-10.654-7.741-7.545,10.7-1.554Z" transform="translate(-116.578 0)" fill="#b77537"/>
    <path id="Path_309" data-name="Path 309" d="M-2012.03-529.886l4.784,9.694,10.7,1.554-7.741,7.545,1.827,10.654-9.568-5.03-9.568,5.03,1.827-10.654-7.741-7.545,10.7-1.554Z" transform="translate(-233.157 0)" fill="#b77537"/>
    <path id="Path_310" data-name="Path 310" d="M-1853.231-529.886l4.784,9.694,10.7,1.554-7.741,7.545,1.828,10.654-9.568-5.03-9.568,5.03,1.827-10.654-7.741-7.545,10.7-1.554Z" transform="translate(-349.735 0)" fill="#b77537"/>
    <path id="Path_311" data-name="Path 311" d="M-1694.432-529.886l4.784,9.694,10.7,1.554-7.741,7.545,1.827,10.654-9.568-5.03-9.568,5.03,1.827-10.654-7.741-7.545,10.7-1.554Z" transform="translate(-466.314 0)" fill="#b77537"/>
  </g>
</svg>
