<svg xmlns="http://www.w3.org/2000/svg" width="176.675" height="181.977" viewBox="0 0 176.675 181.977">
  <path id="Path_34166" data-name="Path 34166" d="M38.08,0H87.346L57.12-34.034C67.83-46.886,76.4-64.022,82.824-84.966H44.03c-3.094,10.234-6.664,17.85-11.186,23.8L14.28-82.11c23.562-14.518,34.034-29.274,34.034-47.124,0-26.18-21.9-42.6-56.406-42.6-16.66,0-28.322,3.57-38.08,11.662a40.3,40.3,0,0,0-14.994,32.13c0,11.662,3.332,18.564,16.66,34.51-11.9,6.664-15.708,9.044-21.658,14.756C-78.54-67.354-84.49-54.978-84.49-39.984c0,13.8,5,26.656,13.566,34.748C-61.88,3.332-49.266,7.14-30.94,7.14-8.33,7.14,8.806,2.38,29.274-10ZM-10.472-110.432a17.306,17.306,0,0,0-1.9-2.142,39.471,39.471,0,0,1-3.332-4.046c-4.522-5-5.95-8.092-5.95-11.662,0-7.14,5.95-11.662,15.708-11.662,10,0,14.756,4.046,14.756,11.9C8.806-121.618,3.808-117.1-10.472-110.432ZM6.426-35.7c-11.662,6.426-19.992,8.806-30.464,8.806-12.138,0-18.564-4.522-18.564-13.328,0-9.52,5.474-15.232,23.324-24.276Z" transform="translate(85.99 173.336)" fill="none" stroke="#b77537" stroke-width="3"/>
</svg>
