<svg xmlns="http://www.w3.org/2000/svg" width="37.077" height="37.077" viewBox="0 0 37.077 37.077">
  <g id="Group_776" data-name="Group 776" transform="translate(-183.75 -5501.772)">
    <path id="Path_1078" data-name="Path 1078" d="M271.067,1818.286H255.024a5.712,5.712,0,0,0-4.039,1.673l-7.109,7.109a5.713,5.713,0,0,0-1.673,4.039v8.989h0v.806h0v6.249a5.712,5.712,0,0,0,5.713,5.712h16.043A5.712,5.712,0,0,0,268,1851.19l7.109-7.109a5.713,5.713,0,0,0,1.673-4.039V1824A5.713,5.713,0,0,0,271.067,1818.286Z" transform="translate(-57.203 3684.736)" fill="none" stroke="#b67537" stroke-miterlimit="10" stroke-width="2.5"/>
    <path id="Path_1079" data-name="Path 1079" d="M259.491,1826.43v10.33l8.233,4.861" transform="translate(-57.203 3684.736)" fill="none" stroke="#b67537" stroke-miterlimit="10" stroke-width="2.5"/>
  </g>
</svg>
