<svg xmlns="http://www.w3.org/2000/svg" width="37.077" height="37.077" viewBox="0 0 37.077 37.077">
  <g id="Group_105" data-name="Group 105" transform="translate(-240.953 -1915.415)">
    <path id="Path_1081" data-name="Path 1081" d="M242.2,1945.325v.2a5.713,5.713,0,0,0,5.713,5.713h16.043a5.712,5.712,0,0,0,4.039-1.673l4.244-4.244" fill="none" stroke="#b67537" stroke-miterlimit="10" stroke-width="2.5"/>
    <g id="Group_104" data-name="Group 104">
      <path id="Path_1082" data-name="Path 1082" d="M276.78,1926.695v-4.318a5.712,5.712,0,0,0-5.713-5.712H255.024a5.708,5.708,0,0,0-4.039,1.673l-7.109,7.109a5.653,5.653,0,0,0-.825,1.079l-.342.641-.06.14a5.652,5.652,0,0,0-.446,2.179v8.989h0v.806h0V1945l12.04-9.721-11.636-8.183" fill="none" stroke="#b67537" stroke-miterlimit="10" stroke-width="2.5"/>
    </g>
    <path id="Path_1083" data-name="Path 1083" d="M274.476,1943.091l.631-.631a5.716,5.716,0,0,0,1.673-4.04v-11.589l-12.345,8.153Z" fill="none" stroke="#b67537" stroke-miterlimit="10" stroke-width="2.5"/>
    <path id="Path_1084" data-name="Path 1084" d="M272.242,1945.325l2.233-2.234-10.041-8.107-5.471,3.613-4.721-3.32L242.2,1945v.326" fill="none" stroke="#b67537" stroke-miterlimit="10" stroke-width="2.5"/>
  </g>
</svg>
