<svg xmlns="http://www.w3.org/2000/svg" width="119.146" height="110.642" viewBox="0 0 119.146 110.642">
  <g id="Group_715" data-name="Group 715" transform="translate(1138.216 -27.466)">
    <path id="Path_305" data-name="Path 305" d="M-1094.915,86.235h-21.817q.659-18.849,6.291-28.712t17.58-14.866l-9.549-15.192q-19.752,8.9-28.863,26.257-6.946,13.021-6.943,42.1v24.342h0v9.374a8.462,8.462,0,0,0,.287,2.09,8.553,8.553,0,0,0,8.282,6.481h24.069a8.568,8.568,0,0,0,6.059-2.51l10.665-10.663a8.576,8.576,0,0,0,2.51-6.061V94.806A8.571,8.571,0,0,0-1094.915,86.235Z" transform="translate(0 0)" fill="#b77537"/>
    <path id="Path_306" data-name="Path 306" d="M-1056.941,86.235h-21.817q.654-18.849,6.291-28.712t17.576-14.866l-9.545-15.192q-19.752,8.9-28.863,26.257-6.946,13.021-6.943,42.1v24.342h0v9.374a8.474,8.474,0,0,0,.287,2.09,8.553,8.553,0,0,0,8.284,6.481h24.067a8.568,8.568,0,0,0,6.059-2.51l10.665-10.663a8.576,8.576,0,0,0,2.51-6.061V94.806A8.571,8.571,0,0,0-1056.941,86.235Z" transform="translate(29.3 0)" fill="#b77537"/>
  </g>
</svg>
