<svg xmlns="http://www.w3.org/2000/svg" width="37.077" height="43.97" viewBox="0 0 37.077 43.97">
  <path id="Path_1080" data-name="Path 1080" d="M271.067,1867.475H255.024a5.709,5.709,0,0,0-4.039,1.674l-7.109,7.108a5.716,5.716,0,0,0-1.673,4.04v8.988h0v.806h0v6.249a5.712,5.712,0,0,0,5.713,5.712h16.043a5.743,5.743,0,0,0,1.025-.1l6.689,4.812-2.755-7.3,6.189-6.189a5.716,5.716,0,0,0,1.673-4.04v-16.043A5.713,5.713,0,0,0,271.067,1867.475Z" transform="translate(-240.953 -1866.225)" fill="none" stroke="#b67537" stroke-miterlimit="10" stroke-width="2.5"/>
</svg>
