<svg xmlns="http://www.w3.org/2000/svg" width="67.801" height="67.801" viewBox="0 0 67.801 67.801">
  <g id="Group_84" data-name="Group 84" transform="translate(0)">
    <g id="Group_14" data-name="Group 14" transform="translate(0 0)">
      <g id="Group_13" data-name="Group 13">
        <path id="Path_198" data-name="Path 198" d="M120.14,173.429V141.97a11.2,11.2,0,0,1,3.28-7.919l13.94-13.94a11.2,11.2,0,0,1,7.922-3.28h31.456a11.2,11.2,0,0,1,11.2,11.2v31.459a11.2,11.2,0,0,1-3.28,7.919l-13.937,13.94a11.213,11.213,0,0,1-7.922,3.28H131.342A11.2,11.2,0,0,1,120.14,173.429Z" transform="translate(-120.14 -116.83)" fill="#212936"/>
      </g>
    </g>
    <g id="Group_18" data-name="Group 18" transform="translate(0 22.544)">
      <g id="Group_15" data-name="Group 15" transform="translate(46.224)">
        <path id="Path_199" data-name="Path 199" d="M139.634,133.39c2.941-.079,5.006-1.907,5.006-4.689a4.971,4.971,0,0,0-9.93-.079A4.629,4.629,0,0,0,139.634,133.39Z" transform="translate(-134.71 -123.936)" fill="#f2eddc"/>
      </g>
      <g id="Group_16" data-name="Group 16" transform="translate(18.179)">
        <path id="Path_200" data-name="Path 200" d="M130.8,133.39c2.938-.079,5-1.907,5-4.689a4.971,4.971,0,0,0-9.93-.079A4.63,4.63,0,0,0,130.8,133.39Z" transform="translate(-125.87 -123.936)" fill="#f2eddc"/>
      </g>
      <g id="Group_17" data-name="Group 17" transform="translate(0 20.223)">
        <path id="Path_201" data-name="Path 201" d="M120.14,130.31v1.58h51.168l3.653,6.736,4.263-8.316Z" transform="translate(-120.14 -130.31)" fill="#f2eddc"/>
      </g>
    </g>
  </g>
</svg>
