<svg xmlns="http://www.w3.org/2000/svg" width="160.329" height="160.329" viewBox="0 0 160.329 160.329">
  <g id="Group_784" data-name="Group 784" transform="translate(-4320.836 14273.45)">
    <g id="Group_782" data-name="Group 782" transform="translate(4320.836 -14273.45)">
      <g id="Group_13" data-name="Group 13">
        <path id="Path_198" data-name="Path 198" d="M120.14,250.669V176.277a26.485,26.485,0,0,1,7.757-18.725l32.964-32.964a26.489,26.489,0,0,1,18.733-7.757h74.384a26.486,26.486,0,0,1,26.49,26.49v74.391a26.485,26.485,0,0,1-7.757,18.726L239.754,269.4a26.516,26.516,0,0,1-18.733,7.757H146.63A26.491,26.491,0,0,1,120.14,250.669Z" transform="translate(-120.14 -116.83)" fill="#3f454d"/>
      </g>
    </g>
    <g id="Group_783" data-name="Group 783" transform="translate(3441 -14505.451)">
      <g id="Group_15" data-name="Group 15" transform="translate(989.142 285.312)">
        <path id="Path_199" data-name="Path 199" d="M146.353,146.293c6.954-.188,11.838-4.509,11.838-11.088s-4.884-11.268-11.838-11.268c-6.572,0-11.643,4.509-11.643,11.081C134.71,141.971,139.782,146.293,146.353,146.293Z" transform="translate(-134.71 -123.936)" fill="#f2eddc"/>
      </g>
      <g id="Group_16" data-name="Group 16" transform="translate(922.823 285.312)">
        <path id="Path_200" data-name="Path 200" d="M137.521,146.293c6.947-.188,11.831-4.509,11.831-11.088s-4.884-11.268-11.831-11.268c-6.579,0-11.651,4.509-11.651,11.081C125.87,141.971,130.941,146.293,137.521,146.293Z" transform="translate(-125.87 -123.936)" fill="#f2eddc"/>
      </g>
      <g id="Group_17" data-name="Group 17" transform="translate(879.836 333.132)">
        <path id="Path_201" data-name="Path 201" d="M120.14,130.31v3.736h121l8.639,15.929,10.08-19.665Z" transform="translate(-120.14 -130.31)" fill="#f2eddc"/>
      </g>
    </g>
  </g>
</svg>
