<svg xmlns="http://www.w3.org/2000/svg" width="55.476" height="55.475" viewBox="0 0 55.476 55.475">
  <g id="Group_309" data-name="Group 309" transform="translate(-3150.292 -806.145)">
    <path id="Path_9320" data-name="Path 9320" d="M3196.6,806.145h-25.738a9.167,9.167,0,0,0-6.482,2.684l-11.406,11.406a9.167,9.167,0,0,0-2.684,6.479v14.423h48.344l-3.488,6.8-2.989-5.512h-41.867v10.025a9.166,9.166,0,0,0,9.166,9.165h25.74a9.175,9.175,0,0,0,6.482-2.684l11.4-11.405a9.161,9.161,0,0,0,2.684-6.479V815.308A9.164,9.164,0,0,0,3196.6,806.145Zm-27.4,26.182a3.871,3.871,0,1,1,0-7.735,3.841,3.841,0,0,1,4.094,3.9C3173.291,830.767,3171.6,832.262,3169.2,832.327Zm22.945,0a3.871,3.871,0,1,1,0-7.735,3.842,3.842,0,0,1,4.1,3.9C3196.238,830.767,3194.548,832.262,3192.142,832.327Z" fill="#eae3cd"/>
  </g>
</svg>
