<svg width="221" height="89" viewBox="0 0 221 89" fill="none" xmlns="http://www.w3.org/2000/svg">
<path d="M131.04 1V41H91.04V1H131.04V1ZM132.04 0H90.04V42H132.04V0Z" fill="#F2EDDC"/>
<path d="M103.84 25.64C103.08 26.0418 102.23 26.2447 101.37 26.23C100.697 26.2604 100.024 26.1518 99.3943 25.911C98.7646 25.6701 98.1913 25.3021 97.71 24.83C97.1841 24.3454 96.7682 23.7537 96.4905 23.0947C96.2127 22.4357 96.0796 21.7248 96.1 21.01C96.08 20.2804 96.2129 19.5548 96.4902 18.8796C96.7675 18.2045 97.183 17.5949 97.71 17.09C98.7168 16.179 100.044 15.7043 101.4 15.77C102.259 15.7649 103.106 15.9782 103.86 16.39V18.67C103.557 18.3138 103.18 18.0282 102.755 17.833C102.33 17.6378 101.868 17.5378 101.4 17.54C100.95 17.5436 100.505 17.6379 100.092 17.8174C99.6787 17.9968 99.3061 18.2577 98.9962 18.5844C98.6862 18.9111 98.4454 19.297 98.288 19.7189C98.1306 20.1408 98.0598 20.5901 98.08 21.04C98.0633 21.4941 98.1402 21.9467 98.306 22.3698C98.4718 22.7929 98.723 23.1772 99.0438 23.499C99.3647 23.8208 99.7483 24.073 100.171 24.2401C100.593 24.4072 101.046 24.4854 101.5 24.47C101.947 24.4727 102.39 24.3754 102.795 24.185C103.199 23.9947 103.557 23.7162 103.84 23.37V25.64Z" fill="#F2EDDC"/>
<path d="M112.9 25.64C112.14 26.0418 111.29 26.2447 110.43 26.23C109.757 26.2604 109.084 26.1518 108.454 25.911C107.825 25.6701 107.251 25.3021 106.77 24.83C106.244 24.3454 105.828 23.7537 105.55 23.0947C105.273 22.4357 105.14 21.7248 105.16 21.01C105.14 20.2804 105.273 19.5548 105.55 18.8796C105.827 18.2045 106.243 17.5949 106.77 17.09C107.762 16.1939 109.064 15.7203 110.4 15.77C111.259 15.7649 112.106 15.9782 112.86 16.39V18.67C112.562 18.3202 112.193 18.0384 111.778 17.8434C111.362 17.6485 110.909 17.545 110.45 17.54C110 17.5436 109.555 17.6379 109.142 17.8174C108.729 17.9968 108.356 18.2577 108.046 18.5844C107.736 18.9111 107.495 19.297 107.338 19.7189C107.181 20.1408 107.11 20.5901 107.13 21.04C107.113 21.495 107.19 21.9485 107.357 22.3722C107.523 22.796 107.775 23.1809 108.097 23.5028C108.419 23.8247 108.804 24.0768 109.228 24.2432C109.652 24.4096 110.105 24.4868 110.56 24.47C111.007 24.4727 111.45 24.3754 111.855 24.185C112.259 23.9947 112.617 23.7162 112.9 23.37V25.64Z" fill="#F2EDDC"/>
<path d="M116.05 16H117.46L120.12 22.36L122.89 16H124.3L125.98 26H123.98L123.08 19.84L120.4 26H119.74L117.17 19.84L116.17 26H114.17L116.05 16Z" fill="#F2EDDC"/>
<path d="M16.29 69.03C14.7703 69.6801 13.1422 70.0396 11.49 70.09C8.42196 70.1569 5.45221 69.0064 3.23 66.89C1.18344 64.8189 0.0247645 62.0316 0 59.12C0.0244802 56.1759 1.18109 53.3542 3.23 51.24C4.28891 50.1807 5.54736 49.3418 6.93255 48.7719C8.31774 48.202 9.80218 47.9125 11.3 47.92C13.0206 47.9548 14.7184 48.3216 16.3 49V55.63C15.7318 54.8918 14.9996 54.296 14.1612 53.8898C13.3229 53.4837 12.4015 53.2783 11.47 53.29C10.0544 53.2372 8.67499 53.7437 7.63 54.7C7.0348 55.2624 6.56232 55.9419 6.24223 56.6956C5.92215 57.4494 5.76137 58.2612 5.77 59.08C5.77019 59.8532 5.92311 60.6187 6.22 61.3326C6.51688 62.0465 6.95188 62.6947 7.5 63.24C8.60414 64.2115 10.0294 64.7389 11.5 64.72C12.4141 64.7162 13.3162 64.5128 14.1436 64.1242C14.9709 63.7356 15.7034 63.171 16.29 62.47V69.03Z" fill="#F2EDDC"/>
<path d="M37.31 66.03H29.57L28.13 69.61H22.27L30.46 48.27H36.46L44.46 69.61H38.62L37.31 66.03ZM35.84 61.8L33.4 54.89L31.07 61.8H35.84Z" fill="#F2EDDC"/>
<path d="M50.53 69.61L54.14 48.27H59.62L63.94 59.66L68.51 48.27H74.05L77.25 69.61H71.71L70.14 57.32L64.99 69.61H62.78L57.86 57.32L56.03 69.61H50.53Z" fill="#F2EDDC"/>
<path d="M90.78 62.54V69.61H85.25V48.27H94.08C95.0645 48.2101 96.051 48.3493 96.9805 48.6792C97.91 49.0091 98.7635 49.5229 99.49 50.19C100.179 50.8571 100.714 51.6658 101.059 52.5602C101.405 53.4546 101.552 54.4133 101.49 55.37C101.566 56.3383 101.438 57.3118 101.112 58.2268C100.786 59.1418 100.271 59.9778 99.6 60.68C98.8897 61.3375 98.0518 61.8418 97.1383 62.1618C96.2248 62.4818 95.2553 62.6105 94.29 62.54H90.78ZM90.78 58.06H92.64C93.474 58.1135 94.3007 57.8767 94.98 57.39C95.2389 57.1303 95.4363 56.8157 95.5574 56.4696C95.6786 56.1234 95.7205 55.7545 95.68 55.39C95.7094 55.0433 95.6678 54.6942 95.5578 54.3641C95.4478 54.034 95.2716 53.7297 95.04 53.47C94.7159 53.1906 94.3394 52.9787 93.9325 52.8464C93.5256 52.7142 93.0964 52.6645 92.67 52.7H90.78V58.06Z" fill="#F2EDDC"/>
<path d="M128.06 69.03C126.541 69.6819 124.912 70.0415 123.26 70.09C120.195 70.1564 117.229 69.0058 115.01 66.89C112.963 64.8189 111.805 62.0316 111.78 59.12C111.805 56.1759 112.961 53.3542 115.01 51.24C116.067 50.1809 117.324 49.3422 118.707 48.7723C120.091 48.2024 121.574 47.9127 123.07 47.92C124.791 47.9531 126.489 48.3199 128.07 49V55.63C127.505 54.8882 126.773 54.2899 125.934 53.8834C125.095 53.4769 124.172 53.2736 123.24 53.29C121.825 53.2393 120.446 53.7455 119.4 54.7C118.81 55.2655 118.341 55.9457 118.023 56.6989C117.705 57.4521 117.544 58.2624 117.55 59.08C117.548 59.8525 117.699 60.6178 117.995 61.3317C118.29 62.0457 118.723 62.6942 119.27 63.24C120.374 64.2115 121.799 64.7389 123.27 64.72C124.184 64.7161 125.086 64.5128 125.914 64.1242C126.741 63.7356 127.473 63.171 128.06 62.47V69.03Z" fill="#F2EDDC"/>
<path d="M144.7 48.27C145.654 48.2051 146.61 48.3397 147.509 48.6651C148.408 48.9905 149.229 49.4996 149.92 50.16C151.113 51.4718 151.763 53.1873 151.74 54.96C151.849 56.3486 151.432 57.7274 150.573 58.8237C149.714 59.92 148.474 60.6538 147.1 60.88L153.79 69.61H146.91L141.6 61.47V69.66H136.06V48.27H144.7ZM141.6 57.84H142.65C143.621 57.8738 144.573 57.5659 145.34 56.97C145.794 56.4846 146.048 55.845 146.05 55.18C146.051 54.8476 145.986 54.5183 145.859 54.2111C145.732 53.9039 145.545 53.6248 145.31 53.39C144.562 52.7838 143.61 52.4868 142.65 52.56H141.6V57.84Z" fill="#F2EDDC"/>
<path d="M172.73 52.97H166.14V56.52H172.4V61.23H166.16V64.91H172.75V69.61H160.61V48.27H172.73V52.97Z" fill="#F2EDDC"/>
<path d="M192.86 52.97H186.27V56.52H192.51V61.23H186.27V64.91H192.86V69.61H180.74V48.27H192.86V52.97Z" fill="#F2EDDC"/>
<path d="M206.4 57.07L213.18 48.27H220.03L211.55 58.38L220.8 69.61H213.63L206.4 60.36V69.61H200.86V48.27H206.4V57.07Z" fill="#F2EDDC"/>
<path d="M30.4 88.01L33.2 73.67L37.84 84.03L42.56 73.67L45.08 88.01H43L41.64 80.01L37.76 88.67L33.92 79.99L32.52 88.05L30.4 88.01Z" fill="#F2EDDC"/>
<path d="M59.72 84.79H54.02L52.56 88.01H50.4L57 73.89L63.32 88.01H61.12L59.72 84.79ZM58.9 82.87L56.9 78.35L54.86 82.87H58.9Z" fill="#F2EDDC"/>
<path d="M71.4 74.67C72.621 74.5732 73.8424 74.8523 74.9 75.47C75.4018 75.8226 75.8087 76.2938 76.0843 76.8416C76.36 77.3894 76.4959 77.9969 76.48 78.61C76.5087 79.4866 76.2216 80.3444 75.671 81.0272C75.1204 81.71 74.3429 82.1723 73.48 82.33L77.64 88.03H75.22L71.4 82.55H71.04V88.01H69.04V74.67H71.4ZM71.06 80.79H71.7C72.26 80.79 74.54 80.73 74.54 78.61C74.54 76.73 72.76 76.55 71.76 76.55H71.06V80.79Z" fill="#F2EDDC"/>
<path d="M85.72 79.99L90.88 74.67H93.56L87.56 80.67L93.62 87.97H90.88L86.12 82.05L85.72 82.45V87.97H83.72V74.67H85.72V79.99Z" fill="#F2EDDC"/>
<path d="M106.76 76.59H101.4V79.97H106.56V81.89H101.4V86.09H106.72V88.01H99.4V74.67H106.76V76.59Z" fill="#F2EDDC"/>
<path d="M117.1 76.59V88.01H115.1V76.59H112V74.67H120.16V76.59H117.1Z" fill="#F2EDDC"/>
<path d="M128.9 74.67C129.923 74.6177 130.939 74.8682 131.82 75.39C132.342 75.7518 132.766 76.2368 133.056 76.802C133.346 77.3672 133.491 77.9951 133.48 78.63C133.493 79.1825 133.382 79.731 133.158 80.2359C132.933 80.7408 132.599 81.1896 132.18 81.55C131.251 82.2694 130.092 82.625 128.92 82.55H128V87.97H126V74.67H128.9ZM128 80.67H128.92C130.68 80.67 131.52 79.81 131.52 78.57C131.52 77.83 131.22 76.51 128.9 76.51H128V80.67Z" fill="#F2EDDC"/>
<path d="M141.6 74.67V86.09H145.52V88.01H139.52V74.67H141.6Z" fill="#F2EDDC"/>
<path d="M159.48 84.79H153.78L152.32 88.01H150.11L156.76 73.89L163.08 88.01H160.88L159.48 84.79ZM158.66 82.87L156.66 78.35L154.6 82.87H158.66Z" fill="#F2EDDC"/>
<path d="M178.34 77.79C177.372 76.8444 176.073 76.3135 174.72 76.31C174.059 76.2946 173.401 76.4172 172.79 76.67C172.179 76.9228 171.627 77.3002 171.17 77.7782C170.712 78.2562 170.36 78.8242 170.134 79.4461C169.909 80.068 169.815 80.73 169.86 81.39C169.836 82.043 169.944 82.6942 170.179 83.304C170.414 83.9138 170.771 84.4694 171.227 84.937C171.684 85.4047 172.231 85.7747 172.834 86.0244C173.438 86.2742 174.087 86.3986 174.74 86.39C176.093 86.356 177.381 85.8049 178.34 84.85V87.27C177.23 87.921 175.967 88.266 174.68 88.27C172.932 88.311 171.237 87.6647 169.96 86.47C169.266 85.8389 168.715 85.0657 168.346 84.203C167.976 83.3403 167.797 82.4082 167.82 81.47C167.795 80.4991 167.972 79.5335 168.341 78.6349C168.709 77.7362 169.261 76.924 169.96 76.25C170.604 75.6466 171.362 75.1782 172.19 74.8725C173.018 74.5668 173.899 74.4299 174.78 74.47C176.04 74.4372 177.281 74.7858 178.34 75.47V77.79Z" fill="#F2EDDC"/>
<path d="M192.22 76.59H186.9V79.97H192.06V81.89H186.9V86.09H192.22V88.01H184.86V74.67H192.22V76.59Z" fill="#F2EDDC"/>
</svg>
