<svg width="242" height="51" viewBox="0 0 242 51" fill="none" xmlns="http://www.w3.org/2000/svg">
<path d="M35.5262 0V50.417H50.4661V11.187L35.5262 0Z" fill="#F2EDDC"/>
<path d="M29.4792 4.53533V50.5304H32.5855V2.19208L29.4792 4.53533Z" fill="#F2EDDC"/>
<path d="M23.4322 50.2658H26.5385V6.46277L23.4322 8.67408V50.2658Z" fill="#F2EDDC"/>
<path d="M17.7631 50.2658H20.8694V10.8846L17.7631 13.2438V50.2658Z" fill="#F2EDDC"/>
<path d="M53.2893 22.6763V50.5416H68.233V33.8822L53.2893 22.6763Z" fill="#F2EDDC"/>
<path d="M11.7161 26.8336V50.2733H14.8224V24.6189L11.7161 26.8336Z" fill="#F2EDDC"/>
<path d="M5.66907 50.2658H8.77534V29.037L5.66907 31.2487V50.2658Z" fill="#F2EDDC"/>
<path d="M0 50.2658H3.10627V33.4589L0 35.818V50.2658Z" fill="#F2EDDC"/>
<path d="M106.579 27.9674C102.145 27.9674 99.3334 25.4614 99.3334 20.5977V11.1605H103.028V20.5977C103.028 23.2512 104.361 24.7247 106.727 24.7247C108.944 24.7247 110.277 23.2504 110.277 20.5977V11.1605H113.976V20.4503C113.976 25.6091 111.016 27.9674 106.576 27.9674H106.579Z" fill="#F2EDDC"/>
<path d="M124.72 27.9675C122.209 27.9675 119.693 27.0827 117.769 25.314L119.841 22.8078C121.319 23.987 122.946 24.724 124.868 24.724C126.345 24.724 127.234 24.1344 127.234 23.2496V23.1022C127.234 22.2175 126.645 21.7753 123.834 21.0383C120.58 20.1536 118.358 19.1218 118.358 15.8795C118.358 12.783 120.724 10.868 124.129 10.868C126.645 10.868 128.714 11.605 130.339 12.9319C128.417 15.7328 128.417 15.7329 128.417 15.7329C127.088 14.7011 125.606 14.1111 124.127 14.1111C122.794 14.1111 122.055 14.7007 122.055 15.5855C122.055 16.6172 122.794 17.0598 125.605 17.7968C129.01 18.6815 130.93 19.8611 130.93 22.8082C130.93 26.1987 128.414 27.9671 124.713 27.9671L124.72 27.9675Z" fill="#F2EDDC"/>
<path d="M146.262 27.9674V21.1872H139.459V27.9674H135.765V11.3079H139.459V17.7934H146.262V11.3079H149.961V27.9674H146.262Z" fill="#F2EDDC"/>
<path d="M210.134 27.9674L202.295 17.4985V27.9674H198.746V11.3079H202.145L209.988 21.9242V11.3079H213.537V27.9674H210.134Z" fill="#F2EDDC"/>
<path d="M138.325 50.2657L133.148 43.1908L131.225 45.2547V50.2662H127.526V33.6066H131.225V40.9764L138.028 33.6066H142.462L135.659 40.6854L142.764 50.2699L138.325 50.2657Z" fill="#F2EDDC"/>
<path d="M147.018 50.2658V33.6063H159.445V36.8498H150.567V40.2406H158.409V43.4837H150.567V47.0223H159.592V50.2658H147.018Z" fill="#F2EDDC"/>
<path d="M182.544 50.2658H186.094V33.6063H182.544V50.2658Z" fill="#F2EDDC"/>
<path d="M191.237 50.2658V33.6063H203.663V36.8498H194.937V40.2406H202.624V43.4837H194.937V47.0223H203.807V50.2658H191.237Z" fill="#F2EDDC"/>
<path d="M209.378 50.2658V33.6063H213.072V47.0231H221.36V50.2665L209.378 50.2658Z" fill="#F2EDDC"/>
<path d="M232.432 50.2658H225.924V33.6063H232.432C237.757 33.6063 241.31 37.2923 241.31 41.8643V42.0117C241.31 46.7283 237.76 50.2696 232.432 50.2696V50.2658ZM237.462 42.0079C237.462 39.0592 235.39 36.9964 232.432 36.9964H229.621V47.0231H232.432C235.392 47.0231 237.462 44.9588 237.462 42.0117V42.0079Z" fill="#F2EDDC"/>
<path d="M88.4376 24.566C85.3275 24.566 83.2598 22.2077 83.2598 19.4072V19.2598C83.2598 16.4585 85.182 14.1009 88.1389 14.1009C89.7663 13.9535 91.249 14.6909 92.2812 15.8704L94.6474 13.0692C93.02 11.5948 90.8038 10.563 88.1393 10.7108C82.9616 10.7108 79.2691 14.6905 79.4127 19.4072C79.5624 24.2712 83.2602 27.9561 88.4379 27.8087C91.0986 27.8087 93.4645 26.6296 94.9422 24.86L92.4312 22.501C91.5427 23.6809 90.0649 24.4175 88.4364 24.5649L88.4376 24.566Z" fill="#F2EDDC"/>
<path d="M168.938 11.3381H172.933V27.9977H169.384V17.0866L164.652 24.1616H164.507L159.768 17.0866V27.9977H156.368V11.3381H160.211L164.648 18.2658L168.938 11.3381Z" fill="#F2EDDC"/>
<path d="M183.678 11.3381L176.573 27.9977H180.42L181.898 24.1654H188.995L190.478 27.9977H194.322L187.224 11.3381H183.678ZM183.233 20.9227L185.45 15.6164L187.672 20.9227H183.233Z" fill="#F2EDDC"/>
<path d="M113.004 33.6365L105.906 50.296H109.605L111.233 46.6104H118.187L119.809 50.296H123.508L116.411 33.6365H113.004ZM112.414 43.3684L114.631 37.9148L116.852 43.3684H112.414Z" fill="#F2EDDC"/>
<path d="M168.182 37.0379V40.5762H176.021V43.9671H168.182V50.3051H164.483V33.6456H177.205V37.0364L168.182 37.0379Z" fill="#F2EDDC"/>
<path d="M101.665 33.6365L97.8217 45.2846L93.9781 33.6365H90.4236L86.58 45.2846L82.7363 33.6365H78.7415L84.8037 50.296H88.5029L92.2022 38.9428L96.0458 50.296H99.5954L105.661 33.6365H101.665Z" fill="#F2EDDC"/>
<path d="M236.967 23.8101C238.889 21.5988 238.889 21.5988 238.889 21.5988C236.673 19.2397 236.673 19.2397 236.673 19.2397C234.896 21.1563 234.896 21.1562 234.896 21.1562L232.824 18.6501C234.157 17.9128 235.045 16.4384 235.045 14.9645C234.896 12.6054 233.123 10.9848 230.756 10.9848C229.572 10.9848 228.534 11.4266 227.795 12.164C227.056 12.9009 226.612 13.9327 226.612 15.1126C226.762 16.4392 227.501 17.4717 228.09 18.2087C226.168 18.946 224.69 21.01 224.835 23.0728C224.985 25.8736 227.351 28.2316 230.311 28.2316C231.939 28.2316 233.711 27.3469 234.896 26.0203C236.378 27.9368 236.378 27.9368 236.378 27.9368H240.668L236.967 23.8101ZM232.972 23.6627C232.084 24.6945 231.2 25.1371 230.312 25.1371C229.128 25.1371 228.09 24.2523 228.09 22.9258C227.945 22.1884 228.535 21.1562 230.162 20.4189L232.972 23.6627ZM230.9 16.7351C230.456 16.2929 229.867 15.7033 229.717 15.1134C229.717 14.5238 230.012 13.9335 230.9 13.7865C231.639 13.7865 232.084 14.376 232.084 15.1134C232.084 15.8503 231.345 16.44 230.9 16.7351Z" fill="#F2EDDC"/>
</svg>
