<svg width="155" height="137" viewBox="0 0 155 137" fill="none" xmlns="http://www.w3.org/2000/svg">
<path d="M101.991 84.1312C101.991 84.1312 104.27 82.7816 104.27 78.7286C104.27 74.6797 101.995 73.5345 101.995 73.5345H66.9661V135.127H78.6438V109.786H94.5573C94.5573 109.786 96.6243 108.437 96.6243 104.388C96.6243 100.339 94.5573 99.1939 94.5573 99.1939H78.6438V84.1312H101.991ZM113.396 73.5386V135.135H148.426C148.426 135.135 150.7 133.99 150.7 129.937C150.7 125.888 148.426 124.538 148.426 124.538H125.074V78.8349C125.074 78.8349 123.902 66.995 131.967 63.3591C140.023 59.7233 152.149 54.7378 154.525 37.4953C150.183 35.5199 134.823 31.1234 122.665 43.3109C121.392 44.6238 117.807 47.8792 115.17 55.3472C113.763 59.3143 113.396 65.1709 113.396 73.5386ZM43.403 87.2476C43.403 87.2476 38.028 82.8838 30.1099 83.1292C30.1099 83.1292 12.1986 82.712 12.1986 103.901C12.1986 125.091 27.4936 125.504 30.7976 125.504C34.1015 125.504 42.7846 124.534 45.2666 116.78H32.0345C31.1068 116.78 30.7569 116.571 30.7569 116.571C30.7569 116.571 28.6899 115.349 28.6899 111.022C28.6899 106.695 30.7609 105.251 30.7609 105.251C30.7609 105.251 31.3102 104.797 32.242 104.797L58.0755 104.801C58.0755 131.806 45.0754 137 29.0398 137C13.0042 137.004 0 122.305 0 104.179C0 86.0493 13.0002 71.3588 29.0398 71.3588C45.1608 71.3588 51.4635 78.8349 51.4635 78.8349C51.4635 78.8349 52.3384 79.5711 52.4157 80.1927C52.4157 80.1927 53.0585 82.4707 50.194 85.3213C47.3295 88.1719 44.6929 87.7711 44.6929 87.7711C44.6929 87.7711 44.3307 87.718 43.403 87.2476ZM112.538 44.6647C112.538 44.6647 101.275 37.1844 101.275 23.0583C101.271 7.06308 112.538 0 112.538 0C112.538 0 123.695 7.27166 123.695 23.0583C123.487 38.1169 112.538 44.6647 112.538 44.6647ZM110.145 60.8398C110.145 60.8398 97.4707 67.1176 84.7757 59.6497C70.4002 51.1961 70.0055 37.2335 70.0055 37.2335C70.0055 37.2335 82.4401 30.9434 96.6243 39.2866C110.056 47.4375 110.145 60.8398 110.145 60.8398Z" fill="#F2EDDC"/>
</svg>
