<svg width="148" height="225" viewBox="0 0 148 225" fill="none" xmlns="http://www.w3.org/2000/svg">
<path fill-rule="evenodd" clip-rule="evenodd" d="M66.2908 30.4013C63.8468 8.80128 64.4358 3.90028 69.8008 1.18528C73.0278 -0.446719 74.2738 -0.412719 77.7918 1.40728C82.7398 3.96528 83.3418 8.24728 81.3198 26.4763C79.4228 43.5823 79.0808 73.2573 80.7178 78.7893C82.2428 83.9423 84.4498 85.7183 92.1908 88.0213C116.152 95.1493 133.137 111.959 140.567 135.901C141.677 139.476 143.749 144.426 145.171 146.901C148.586 152.843 148.449 156.019 144.417 164.404C142.567 168.253 140.262 173.876 139.294 176.901C138.326 179.926 135.929 185.551 133.967 189.401C129.128 198.897 115.844 212.161 106.781 216.547C84.6438 227.26 64.0328 227.591 43.2808 217.568C32.6038 212.411 25.0928 205.895 18.0638 195.689C11.7828 186.569 9.48378 182.001 7.34978 174.401C6.42278 171.101 4.79578 167.188 3.73378 165.706C2.67178 164.224 1.27678 161.045 0.633784 158.641C-0.435216 154.645 -0.301216 153.762 2.19878 148.336C3.70278 145.072 5.97978 139.126 7.25978 135.123C14.2098 113.382 31.7948 96.1003 54.2808 88.9113C62.7298 86.2103 65.7338 83.5463 66.8508 77.7653C68.1998 70.7833 67.8888 44.5333 66.2908 30.4013ZM72.8478 19.4423C74.6008 20.5263 75.1978 19.0943 75.2408 13.7053C75.2778 8.98928 74.1408 6.87428 72.4688 8.54728C71.3628 9.65228 71.6788 18.7203 72.8478 19.4423Z" fill="#F2EDDC"/>
<path fill-rule="evenodd" clip-rule="evenodd" d="M109 138H103V173H109V157.305L112 168L112 168L117 168L117 168L121 154.52V173H127V138H121L114.647 159.177L109 138Z" fill="#212936"/>
<path fill-rule="evenodd" clip-rule="evenodd" d="M63 140C63 138.895 63.8954 138 65 138H68H69H73H74H77C78.1046 138 79 138.895 79 140V148H73V144H69V152H73H74H77C78.1046 152 79 152.895 79 154V171C79 172.105 78.1046 173 77 173H74H73H69H68H65C63.8954 173 63 172.105 63 171V163H69V167H73V158H69H68H65C63.8954 158 63 157.105 63 156V140Z" fill="#212936"/>
<path fill-rule="evenodd" clip-rule="evenodd" d="M32 137.882L37.8503 137.882L31.5686 155.43L39 173H33L28 161.938V173H22V138H28V148.243L32 137.882Z" fill="#212936"/>
<rect x="50" y="129" width="2" height="52" fill="#212936"/>
<rect x="90" y="129" width="2" height="52" fill="#212936"/>
</svg>
