<svg width="236" height="152" viewBox="0 0 236 152" fill="none" xmlns="http://www.w3.org/2000/svg">
<path d="M90.86 146.106H97.2943V143.427H90.86V140.658H98.1626V137.979H87.8543V151.665H98.2517V148.986H90.8377V146.106H90.86ZM65.8574 142.511V142.467C65.8574 139.653 63.9204 137.957 60.7143 137.957H54.4804V151.643H57.486V147.267H59.846L62.7626 151.643H66.2804L62.9408 146.753C64.6774 146.128 65.8574 144.722 65.8574 142.511ZM62.8072 142.667C62.8072 143.828 61.9611 144.61 60.514 144.61H57.4638V140.68H60.4472C61.9166 140.68 62.8072 141.35 62.8072 142.645V142.667ZM79.9951 137.957H74.4291V151.643H77.4347V147.535H79.7057C82.7781 147.535 85.2272 145.882 85.2272 142.712V142.667C85.2272 139.899 83.2457 137.957 79.9951 137.957ZM82.177 142.801C82.177 143.985 81.2864 144.878 79.7947 144.878H77.4125V140.703H79.7279C81.2196 140.703 82.177 141.417 82.177 142.779V142.801ZM0.0445283 140.747H4.20792V151.665H7.21358V140.747H11.3547V137.979H0.0445283V140.747ZM97.8955 118.778H111.944V0H97.8955V52.0212H0V66.4219H97.8955V118.778ZM43.9494 146.106H50.3838V143.427H43.9494V140.658H51.2521V137.979H40.966V151.665H51.3634V148.986H43.9494V146.106ZM19.9264 143.449L16.6758 137.957H13.1804L18.4347 146.24V151.643H21.4404V146.195L26.6947 137.957H23.2883L19.9264 143.449ZM31.4815 137.957H28.4758V151.643H38.2943V148.897H31.4815V137.957ZM138.105 52.3561V0H124.034V118.778H138.105V66.7568H236V52.3561H138.105ZM193.453 137.979H188.132V151.665H193.453C197.75 151.665 200.711 148.673 200.711 144.833V144.766C200.711 140.926 197.75 137.979 193.453 137.979ZM197.572 144.855C197.572 147.289 195.925 148.941 193.453 148.941H191.138V140.703H193.453C195.902 140.703 197.572 142.4 197.572 144.833V144.855ZM203.561 151.643H206.567V137.957H203.561V151.643ZM231.659 143.494C229.299 142.891 228.72 142.6 228.72 141.685V141.64C228.72 140.971 229.321 140.457 230.478 140.457C231.636 140.457 232.816 140.971 234.018 141.797L235.577 139.519C234.197 138.403 232.505 137.778 230.501 137.778C227.718 137.778 225.736 139.43 225.736 141.908V141.953C225.736 144.677 227.517 145.436 230.256 146.128C232.527 146.709 232.994 147.11 232.994 147.87V147.914C232.994 148.718 232.26 149.209 231.035 149.209C229.477 149.209 228.185 148.562 226.961 147.557L225.18 149.678C226.827 151.152 228.898 151.866 230.968 151.866C233.907 151.866 235.978 150.348 235.978 147.624V147.579C235.978 145.213 234.419 144.23 231.659 143.494ZM216.519 137.845C212.311 137.845 209.261 141.038 209.261 144.922V144.967C209.261 148.852 212.289 152 216.497 152C220.705 152 223.755 148.807 223.755 144.922V144.878C223.732 140.993 220.727 137.845 216.519 137.845ZM220.593 144.967C220.593 147.311 218.923 149.232 216.497 149.232C214.07 149.232 212.355 147.267 212.355 144.922V144.878C212.355 142.533 214.025 140.613 216.452 140.613C218.879 140.613 220.593 142.578 220.593 144.922V144.967ZM182.21 145.816C182.21 147.981 181.097 149.098 179.271 149.098C177.445 149.098 176.332 147.937 176.332 145.726V137.979H173.326V145.793C173.326 149.812 175.575 151.866 179.226 151.866C182.9 151.866 185.215 149.834 185.215 145.682V137.957H182.21V145.816ZM135.299 143.449L132.049 137.957H128.531L133.785 146.24V151.643H136.791V146.195L142.045 137.957H138.639L135.299 143.449ZM112.768 142.511V142.467C112.768 139.653 110.831 137.957 107.625 137.957H101.391V151.643H104.397V147.267H106.757L109.673 151.643H113.191L109.851 146.753C111.566 146.128 112.768 144.722 112.768 142.511ZM109.718 142.667C109.718 143.828 108.872 144.61 107.425 144.61H104.397V140.68H107.38C108.849 140.68 109.74 141.35 109.74 142.645V142.667H109.718ZM127.284 142.511V142.467C127.284 139.653 125.347 137.957 122.141 137.957H115.907V151.643H118.913V147.267H121.273L124.189 151.643H127.707L124.368 146.753C126.104 146.128 127.284 144.722 127.284 142.511ZM124.256 142.667C124.256 143.828 123.41 144.61 121.963 144.61H118.891V140.68H121.874C123.343 140.68 124.234 141.35 124.234 142.645V142.667H124.256ZM159.701 140.747H163.842V151.643H166.848V140.747H170.989V137.979H159.678V140.747H159.701ZM153.823 143.471C151.463 142.868 150.884 142.578 150.884 141.663V141.618C150.884 140.948 151.485 140.435 152.643 140.435C153.801 140.435 154.981 140.948 156.183 141.774L157.742 139.497C156.361 138.381 154.669 137.756 152.665 137.756C149.882 137.756 147.901 139.408 147.901 141.886V141.931C147.901 144.655 149.682 145.414 152.42 146.106C154.691 146.686 155.159 147.088 155.159 147.847V147.892C155.159 148.696 154.424 149.187 153.2 149.187C151.641 149.187 150.35 148.539 149.125 147.535L147.344 149.656C148.992 151.129 151.062 151.844 153.133 151.844C156.072 151.844 158.142 150.326 158.142 147.602V147.557C158.142 145.19 156.584 144.186 153.823 143.471Z" fill="#F2EDDC"/>
</svg>
