<?xml version="1.0" encoding="utf-8"?>
<!-- Generator: Adobe Illustrator 25.1.0, SVG Export Plug-In . SVG Version: 6.00 Build 0)  -->
<svg version="1.1" id="Layer_1" xmlns="http://www.w3.org/2000/svg" xmlns:xlink="http://www.w3.org/1999/xlink" x="0px" y="0px"
	 viewBox="0 0 173.2 83" style="enable-background:new 0 0 173.2 83;" xml:space="preserve">
<style type="text/css">
	.st0{fill:none;stroke:#1D543C;stroke-width:0.197;stroke-miterlimit:10;}
	.st1{fill:#B77537;}
	.st2{fill:#212936;}
	.st3{enable-background:new    ;}
</style>
<g id="Group_101" transform="translate(-87 -4931)">
	<g id="Group_1" transform="translate(187.175 4998.788)">
		<path id="Path_1" class="st0" d="M0,0"/>
	</g>
	<path id="Path_2" class="st0" d="M172.6,5001.3"/>
	<path id="Path_3" class="st1" d="M255.3,4971.1h-20.5v-6.7c0-0.4,0.1-0.7,0.4-1c0.3-0.3,0.6-0.4,1-0.4h5.1c2.5,0.1,5.1-0.4,7.5-1.2
		c2-0.7,3.8-1.8,5.3-3.3c1.4-1.4,2.5-3.1,3.2-4.9c0.7-2,1.1-4,1.1-6.1c0-2.1-0.4-4.2-1.3-6.1c-0.8-1.9-2-3.6-3.4-5
		c-1.4-1.5-3.2-2.6-5-3.4c-2-0.8-4.1-1.2-6.2-1.2h-17.9c-0.4,0-0.7,0.1-1,0.4c-0.3,0.3-0.4,0.6-0.4,1v38.1h-4.8l-16.4-38.1
		c-0.2-0.4-0.4-0.7-0.8-0.9c-0.3-0.2-0.7-0.4-1.1-0.4h-8.2c-0.4,0-0.8,0.1-1.2,0.4c-0.3,0.2-0.6,0.5-0.8,0.9l-16.3,38.1H169
		c1-0.9,1.7-2,2.3-3.2c0.9-1.9,1.3-4,1.2-6.1c0.1-2.2-0.4-4.3-1.5-6.2c-0.9-1.6-2.2-3-3.7-4c-1.4-1-3-1.8-4.7-2.3
		c-1.5-0.5-3.1-0.9-4.6-1.2c-0.3,0-0.9-0.1-1.9-0.3c-1-0.2-2-0.4-3-0.7c-1-0.3-1.9-0.7-2.8-1.1c-0.8-0.4-1.2-0.9-1.2-1.5
		c0-0.5,0.2-1,0.5-1.3c0.4-0.3,0.8-0.6,1.3-0.7c0.5-0.1,1.1-0.2,1.6-0.2c0.6,0,1.1,0,1.5,0c1.6,0,3.2,0.3,4.7,0.8
		c2,0.6,3.8,1.5,5.6,2.7c0.3,0.2,0.7,0.3,1.1,0.2c0.4-0.1,0.7-0.3,0.9-0.6l4.6-6.5c0.2-0.3,0.3-0.7,0.3-1.1c0-0.4-0.2-0.7-0.5-1
		c-2.3-1.8-4.8-3.2-7.5-4.2c-2.8-1-5.8-1.5-8.8-1.4c-1.9,0-3.9,0.2-5.8,0.6c-1.9,0.4-3.8,1.1-5.4,2.2c-1.6,1.1-3,2.5-4,4.2
		c-1.1,2-1.7,4.3-1.6,6.7c0,1.6,0.3,3.3,0.8,4.8c0.5,1.3,1.3,2.5,2.3,3.5c0.9,1,2,1.8,3.2,2.4c1.2,0.6,2.4,1.1,3.6,1.6
		c1.2,0.4,2.3,0.7,3.5,0.9c1.2,0.2,2.2,0.4,3,0.6c0.9,0.2,1.8,0.4,2.6,0.5c0.8,0.1,1.5,0.3,2.3,0.5c0.6,0.2,1.1,0.4,1.6,0.7
		c0.4,0.3,0.6,0.7,0.6,1.2c0,0.9-0.5,1.8-1.3,2.2c-1.2,0.6-2.6,0.8-3.9,0.7c-2,0-4-0.4-5.8-1.2c-2.2-0.8-4.3-1.9-6.3-3.2
		c-0.3-0.2-0.7-0.3-1.1-0.2c-0.4,0.1-0.7,0.3-0.9,0.6l-4.5,6.5c-0.2,0.3-0.3,0.7-0.3,1.1c0,0.4,0.2,0.7,0.5,1c1,0.9,2.1,1.6,3.3,2.3
		h-5.4l-16.4-38.1c-0.2-0.4-0.4-0.7-0.8-0.9c-0.3-0.2-0.7-0.4-1.1-0.4h-8.2c-0.4,0-0.8,0.1-1.2,0.4c-0.3,0.2-0.6,0.5-0.8,0.9
		l-19.4,44.9c-0.3,0.6-0.4,1.3-0.4,2v15.1c0,2.7,2.2,4.9,4.9,4.9h159.9c1.9,0,3.6-1.1,4.4-2.8l3.5-7.2c0.3-0.7,0.5-1.4,0.5-2.1V4976
		C260.2,4973.3,258,4971.1,255.3,4971.1z M187.8,4969.7c0.2-0.4,0.4-0.7,0.8-0.9c0.4-0.2,0.8-0.4,1.2-0.4h12.4
		c0.4,0,0.8,0.1,1.1,0.4c0.3,0.2,0.6,0.5,0.8,0.9l0.6,1.4h-17.6L187.8,4969.7z M105.5,4968.7c0.4-0.2,0.8-0.4,1.2-0.4h12.4
		c0.4,0,0.8,0.1,1.1,0.4c0.3,0.2,0.6,0.5,0.8,0.9l0.6,1.4H104l0.7-1.4C104.9,4969.3,105.2,4969,105.5,4968.7L105.5,4968.7z"/>
	<g id="Group_100" transform="translate(97.953 4946.344)">
		<g id="Group_3" transform="translate(8.555)">
			<path id="Path_5" class="st2" d="M1.6,0c0.9-0.1,1.6,0.6,1.7,1.5c0,0,0,0.1,0,0.1c0,0.9-0.7,1.6-1.6,1.6c0,0-0.1,0-0.1,0
				C0.8,3.2,0.1,2.6,0,1.7c0,0,0-0.1,0-0.1C0,0.7,0.7,0,1.5,0C1.6,0,1.6,0,1.6,0z M11,0c0.9-0.1,1.6,0.6,1.7,1.5c0,0,0,0.1,0,0.1
				c0,0.9-0.7,1.6-1.6,1.6c0,0-0.1,0-0.1,0c-0.9,0.1-1.6-0.6-1.6-1.4c0,0,0-0.1,0-0.1c0-0.9,0.7-1.6,1.5-1.6C10.9,0,11,0,11,0z"/>
		</g>
		<path id="Path_6" class="st2" d="M0.2,6.7L0,7.3h19l1.5,2.2l1.8-2.7H0.2z"/>
	</g>
	<g id="Group_98" transform="translate(176.021 4957.876)">
		<g id="Group_2" transform="translate(5.787 0)">
			<path id="Path_4" class="st2" d="M1.6,0c0.9-0.1,1.6,0.6,1.7,1.5c0,0,0,0.1,0,0.1c0,0.9-0.7,1.6-1.6,1.6c0,0-0.1,0-0.1,0
				C0.8,3.2,0.1,2.6,0,1.7c0,0,0-0.1,0-0.1C0,0.7,0.7,0,1.5,0C1.6,0,1.6,0,1.6,0z M11,0c0.9-0.1,1.6,0.6,1.7,1.5c0,0,0,0.1,0,0.1
				c0,0.9-0.7,1.6-1.6,1.6c0,0-0.1,0-0.1,0c-0.9,0.1-1.6-0.6-1.6-1.4c0,0,0-0.1,0-0.1c0-0.9,0.7-1.6,1.5-1.6C11,0,11,0,11,0L11,0z"
				/>
		</g>
		<path id="Path_8" class="st2" d="M0.2,7L0,7.6h18.1l1.5,2.2L21.4,7L0.2,7z"/>
	</g>
	<g id="Group_97" transform="translate(223.223 4935.46)">
		<path id="Path_7" class="st2" d="M0,6.6v0.6h25.1l1.5,2.2l1.8-2.7H0z"/>
		<g id="Group_4" transform="translate(15.012)">
			<path id="Path_9" class="st2" d="M1.6,0c0.9-0.1,1.6,0.6,1.7,1.5c0,0,0,0.1,0,0.1c0,0.9-0.7,1.6-1.6,1.6c0,0-0.1,0-0.1,0
				C0.8,3.2,0.1,2.6,0,1.7c0,0,0-0.1,0-0.1C0,0.7,0.7,0,1.5,0C1.6,0,1.6,0,1.6,0z M11,0c0.9-0.1,1.6,0.6,1.7,1.5c0,0,0,0.1,0,0.1
				c0,0.9-0.7,1.6-1.6,1.6c0,0-0.1,0-0.1,0c-0.9,0.1-1.6-0.6-1.6-1.4c0,0,0-0.1,0-0.1c0-0.9,0.7-1.6,1.5-1.6C10.9,0,11,0,11,0L11,0z
				"/>
		</g>
	</g>
	<g id="Group_99" transform="translate(162.302 4934.854)">
		<path id="Path_10" class="st2" d="M0,3.8L0.2,7l2.4-1.2l3.3,1.8l0.3-0.5L0,3.8z"/>
		<circle id="Ellipse_1" class="st2" cx="3.6" cy="1.6" r="1.6"/>
	</g>
	<g id="Group_5" transform="translate(94.497 4980.342)">
		<path id="Path_11" class="st2" d="M8.8,13.8H6.9L5.4,4.9h0l-1.5,8.9H2L0,0.1h2.1l1,8.7h0l1.5-8.7h1.5L7.7,9h0l0.9-8.9h2.1
			L8.8,13.8z"/>
		<path id="Path_12" class="st2" d="M15,0.1h2v13.7h-2V0.1z"/>
		<path id="Path_13" class="st2" d="M21.8,0.1h2v11.8h3.9v2h-5.9V0.1z"/>
		<path id="Path_14" class="st2" d="M31.8,0.1h2.9C36.5,0,38,1.3,38.2,3c0,0.2,0,0.4,0,0.6v6.4c0,2.5-1.3,3.8-3.6,3.8h-2.7L31.8,0.1
			z M33.8,12h0.9c1.1,0,1.5-0.5,1.5-1.7V3.7c0-1.1-0.4-1.7-1.5-1.7h-0.9V12z"/>
		<path id="Path_15" class="st2" d="M42.9,0.1h2v11.8h3.9v2h-5.9V0.1z"/>
		<path id="Path_16" class="st2" d="M53,0.1h2v13.7h-2V0.1z"/>
		<path id="Path_17" class="st2" d="M59.7,0.1h5.9V2h-3.9v4.2h3.4V8h-3.4v5.9h-2V0.1z"/>
		<path id="Path_18" class="st2" d="M69.8,0.1h5.9V2h-3.9v4h3.4v1.8h-3.4v4h3.9v2h-5.9V0.1z"/>
		<path id="Path_19" class="st2" d="M86.3,0.1h3.2c2.3,0,3.5,1.4,3.5,4c0.2,1.4-0.5,2.7-1.7,3.4l2.1,6.3h-2.1L89.4,8h-1.2v5.9h-2
			L86.3,0.1z M88.2,6.2h1.1c1.4,0,1.6-0.8,1.6-2.1c0-1.4-0.2-2.1-1.7-2.1h-1L88.2,6.2z"/>
		<path id="Path_20" class="st2" d="M97.4,0.1h5.9V2h-3.9v4h3.4v1.8h-3.4v4h3.9v2h-5.9V0.1z"/>
		<path id="Path_21" class="st2" d="M107.4,0.1h1.9l2.5,7.3h0l2.5-7.3h1.9v13.7h-2V5.5h0l-1.9,5.9h-1l-1.9-5.9h0v8.3h-2V0.1z"/>
		<path id="Path_22" class="st2" d="M120.9,3.4c-0.1-1.8,1.3-3.3,3.1-3.4c0.1,0,0.1,0,0.2,0c1.8,0,3.3,1.4,3.3,3.1
			c0,0.1,0,0.1,0,0.2v7.2c0.1,1.8-1.3,3.3-3.1,3.4c-0.1,0-0.1,0-0.2,0c-1.8,0-3.3-1.4-3.3-3.1c0-0.1,0-0.1,0-0.2V3.4z M122.8,10.6
			c-0.1,0.7,0.4,1.3,1.1,1.4c0.1,0,0.1,0,0.2,0c0.7,0,1.3-0.5,1.3-1.2c0-0.1,0-0.1,0-0.2V3.4c0.1-0.7-0.4-1.3-1.1-1.4
			c-0.1,0-0.1,0-0.2,0c-0.7,0-1.3,0.5-1.3,1.2c0,0.1,0,0.1,0,0.2V10.6z"/>
		<path id="Path_23" class="st2" d="M135.6,13.8h-1.7l-2.8-13.7h2.1l1.6,9.6h0l1.6-9.6h2.1L135.6,13.8z"/>
		<path id="Path_24" class="st2" d="M144,0.1h1.6l3.1,13.7h-2l-0.6-2.9h-2.7l-0.6,2.9h-2L144,0.1z M144.8,4.1L144.8,4.1l-1,5h2
			L144.8,4.1z"/>
		<path id="Path_25" class="st2" d="M152.5,0.1h2v11.8h3.9v2h-5.9V0.1z"/>
	</g>
	<g id="Group_6" transform="translate(188.241 4998.788)">
		<path id="Path_26" class="st0" d="M0,0"/>
	</g>
	<path id="Path_27" class="st0" d="M173.7,5001.3"/>
	<g class="st3">
		<path class="st1" d="M89.6,5008.3h2.1c0.4,0,0.7,0.1,1,0.4c0.3,0.2,0.4,0.6,0.4,1c0,0.4-0.1,0.7-0.3,1c-0.2,0.3-0.6,0.4-1,0.4
			h-1.5v2h-0.6V5008.3z M92,5009c-0.1-0.1-0.3-0.1-0.6-0.1h-1.2v1.6h1.2c0.3,0,0.5-0.1,0.7-0.2c0.2-0.1,0.3-0.3,0.3-0.6
			C92.4,5009.3,92.3,5009.1,92,5009z"/>
		<path class="st1" d="M95.2,5008.3h3.4v0.6h-2.8v1.4h2.6v0.5h-2.6v1.6h2.8v0.6h-3.4V5008.3z"/>
		<path class="st1" d="M101.2,5011.5c0,0.3,0.1,0.5,0.2,0.6c0.2,0.3,0.6,0.5,1.1,0.5c0.2,0,0.4,0,0.6-0.1c0.4-0.1,0.5-0.4,0.5-0.7
			c0-0.3-0.1-0.4-0.2-0.5c-0.2-0.1-0.4-0.2-0.7-0.3l-0.6-0.1c-0.4-0.1-0.7-0.2-0.8-0.3c-0.3-0.2-0.4-0.5-0.4-0.9
			c0-0.4,0.1-0.8,0.4-1c0.3-0.3,0.7-0.4,1.2-0.4c0.5,0,0.9,0.1,1.2,0.4c0.3,0.2,0.5,0.6,0.5,1.1h-0.6c0-0.2-0.1-0.4-0.2-0.6
			c-0.2-0.2-0.5-0.4-0.9-0.4c-0.4,0-0.6,0.1-0.8,0.2s-0.2,0.3-0.2,0.5c0,0.2,0.1,0.4,0.3,0.5c0.1,0.1,0.4,0.2,0.8,0.3l0.6,0.1
			c0.3,0.1,0.5,0.2,0.7,0.3c0.3,0.2,0.4,0.5,0.4,0.9c0,0.5-0.2,0.9-0.5,1.1c-0.4,0.2-0.8,0.3-1.3,0.3c-0.6,0-1-0.1-1.3-0.4
			c-0.3-0.3-0.5-0.7-0.5-1.2H101.2z"/>
		<path class="st1" d="M109.8,5008.3v0.6h-1.6v4.1h-0.6v-4.1H106v-0.6H109.8z"/>
		<path class="st1" d="M115.1,5009.8c-0.1-0.2-0.1-0.3-0.1-0.4c0-0.3,0.1-0.5,0.3-0.7c0.2-0.2,0.5-0.3,0.8-0.3
			c0.3,0,0.6,0.1,0.8,0.3c0.2,0.2,0.3,0.4,0.3,0.7c0,0.3-0.1,0.6-0.3,0.8c-0.1,0.1-0.3,0.3-0.5,0.5l0.8,1c0.1-0.2,0.1-0.3,0.1-0.4
			c0-0.1,0-0.2,0.1-0.4h0.5c0,0.3-0.1,0.6-0.2,0.9c-0.1,0.3-0.2,0.4-0.2,0.3l0.8,1h-0.7l-0.4-0.5c-0.2,0.2-0.3,0.3-0.5,0.4
			c-0.3,0.2-0.5,0.2-0.9,0.2c-0.5,0-0.8-0.1-1.1-0.4c-0.2-0.3-0.3-0.6-0.3-0.9c0-0.4,0.1-0.6,0.3-0.9c0.1-0.1,0.4-0.3,0.7-0.5
			C115.3,5010.2,115.2,5010,115.1,5009.8z M116.5,5012.4c0.2-0.1,0.3-0.2,0.4-0.4l-1-1.3c-0.3,0.2-0.5,0.4-0.6,0.5
			c-0.1,0.2-0.2,0.4-0.2,0.6c0,0.2,0.1,0.4,0.3,0.6c0.2,0.1,0.4,0.2,0.6,0.2C116.1,5012.6,116.3,5012.6,116.5,5012.4z M116.5,5009.8
			c0.1-0.1,0.2-0.3,0.2-0.5c0-0.1,0-0.3-0.1-0.4c-0.1-0.1-0.2-0.1-0.4-0.1c-0.2,0-0.4,0.1-0.5,0.2c0,0.1-0.1,0.2-0.1,0.3
			c0,0.1,0,0.3,0.1,0.4c0.1,0.1,0.2,0.3,0.4,0.5C116.3,5010,116.4,5009.9,116.5,5009.8z"/>
		<path class="st1" d="M123.7,5008.3l0.9,3.8l1.1-3.8h0.7l1.1,3.8l0.9-3.8h0.7l-1.2,4.7h-0.7l-1.1-3.9l-1.1,3.9h-0.7l-1.2-4.7H123.7
			z"/>
		<path class="st1" d="M131,5008.3h0.6v4.7H131V5008.3z"/>
		<path class="st1" d="M134,5008.3h0.6v4.1h2.3v0.6h-3V5008.3z"/>
		<path class="st1" d="M138.9,5008.3h1.9c0.6,0,1.1,0.2,1.5,0.7c0.3,0.4,0.5,0.9,0.5,1.6c0,0.5-0.1,0.9-0.3,1.3
			c-0.3,0.7-0.9,1.1-1.7,1.1h-1.9V5008.3z M140.7,5012.5c0.2,0,0.4,0,0.5-0.1c0.2-0.1,0.4-0.2,0.6-0.5c0.1-0.2,0.2-0.4,0.3-0.7
			c0-0.2,0-0.3,0-0.5c0-0.6-0.1-1-0.3-1.3s-0.6-0.5-1.1-0.5h-1.1v3.6H140.7z"/>
		<path class="st1" d="M144.9,5008.3h0.6v4.1h2.3v0.6h-3V5008.3z"/>
		<path class="st1" d="M149.9,5008.3h0.6v4.7h-0.6V5008.3z"/>
		<path class="st1" d="M153,5008.3h3.2v0.6h-2.6v1.4h2.3v0.6h-2.3v2.1H153V5008.3z"/>
		<path class="st1" d="M158.2,5008.3h3.4v0.6h-2.8v1.4h2.6v0.5h-2.6v1.6h2.8v0.6h-3.4V5008.3z"/>
		<path class="st1" d="M167,5008.3h2.1c0.3,0,0.6,0.1,0.9,0.2c0.4,0.2,0.6,0.6,0.6,1.1c0,0.3-0.1,0.5-0.2,0.7s-0.3,0.3-0.5,0.4
			c0.2,0.1,0.3,0.2,0.4,0.3c0.1,0.1,0.1,0.3,0.2,0.6l0,0.6c0,0.2,0,0.3,0,0.4c0,0.1,0.1,0.2,0.2,0.3v0.1H170c0,0,0-0.1-0.1-0.2
			s0-0.2,0-0.4l0-0.8c0-0.3-0.1-0.5-0.3-0.6c-0.1-0.1-0.3-0.1-0.6-0.1h-1.4v2H167V5008.3z M169,5010.5c0.3,0,0.5-0.1,0.7-0.2
			c0.2-0.1,0.3-0.3,0.3-0.6c0-0.3-0.1-0.6-0.4-0.7c-0.1-0.1-0.3-0.1-0.5-0.1h-1.5v1.6H169z"/>
		<path class="st1" d="M173,5008.3h3.4v0.6h-2.8v1.4h2.6v0.5h-2.6v1.6h2.8v0.6H173V5008.3z"/>
		<path class="st1" d="M178.5,5008.3h0.9l1.3,3.9l1.3-3.9h0.9v4.7h-0.6v-2.8c0-0.1,0-0.3,0-0.5c0-0.2,0-0.5,0-0.7l-1.3,3.9h-0.6
			l-1.3-3.9v0.1c0,0.1,0,0.3,0,0.5c0,0.2,0,0.4,0,0.5v2.8h-0.6V5008.3z"/>
		<path class="st1" d="M189.1,5009c0.3,0.4,0.5,0.9,0.5,1.6c0,0.7-0.2,1.3-0.5,1.7c-0.4,0.5-1,0.8-1.8,0.8c-0.7,0-1.3-0.2-1.7-0.7
			c-0.4-0.5-0.5-1-0.5-1.7c0-0.6,0.2-1.2,0.5-1.6c0.4-0.6,1-0.9,1.8-0.9C188.1,5008.2,188.7,5008.5,189.1,5009z M188.5,5012
			c0.2-0.4,0.4-0.9,0.4-1.4c0-0.5-0.1-1-0.4-1.3c-0.3-0.3-0.7-0.5-1.2-0.5c-0.5,0-0.9,0.2-1.2,0.5s-0.5,0.8-0.5,1.5
			c0,0.5,0.1,1,0.4,1.3c0.3,0.4,0.7,0.5,1.3,0.5C187.9,5012.6,188.3,5012.4,188.5,5012z"/>
		<path class="st1" d="M192,5008.3l1.3,4l1.3-4h0.7l-1.7,4.7H193l-1.7-4.7H192z"/>
		<path class="st1" d="M198.1,5008.3h0.7l1.7,4.7h-0.7l-0.5-1.4h-1.8l-0.5,1.4h-0.6L198.1,5008.3z M199.2,5011.1l-0.7-2.1l-0.8,2.1
			H199.2z"/>
		<path class="st1" d="M202.4,5008.3h0.6v4.1h2.3v0.6h-3V5008.3z"/>
		<path class="st1" d="M210.6,5011.5c0,0.3,0.1,0.5,0.2,0.6c0.2,0.3,0.6,0.5,1.1,0.5c0.2,0,0.4,0,0.6-0.1c0.4-0.1,0.5-0.4,0.5-0.7
			c0-0.3-0.1-0.4-0.2-0.5c-0.2-0.1-0.4-0.2-0.7-0.3l-0.6-0.1c-0.4-0.1-0.7-0.2-0.8-0.3c-0.3-0.2-0.4-0.5-0.4-0.9
			c0-0.4,0.1-0.8,0.4-1s0.7-0.4,1.2-0.4c0.5,0,0.9,0.1,1.2,0.4c0.3,0.2,0.5,0.6,0.5,1.1h-0.6c0-0.2-0.1-0.4-0.2-0.6
			c-0.2-0.2-0.5-0.4-0.9-0.4c-0.4,0-0.6,0.1-0.8,0.2s-0.2,0.3-0.2,0.5c0,0.2,0.1,0.4,0.3,0.5c0.1,0.1,0.4,0.2,0.8,0.3l0.6,0.1
			c0.3,0.1,0.5,0.2,0.7,0.3c0.3,0.2,0.4,0.5,0.4,0.9c0,0.5-0.2,0.9-0.5,1.1c-0.4,0.2-0.8,0.3-1.3,0.3c-0.6,0-1-0.1-1.3-0.4
			c-0.3-0.3-0.5-0.7-0.5-1.2H210.6z"/>
		<path class="st1" d="M215.9,5008.3h2.1c0.4,0,0.7,0.1,1,0.4c0.3,0.2,0.4,0.6,0.4,1c0,0.4-0.1,0.7-0.3,1c-0.2,0.3-0.6,0.4-1,0.4
			h-1.5v2h-0.6V5008.3z M218.3,5009c-0.1-0.1-0.3-0.1-0.6-0.1h-1.2v1.6h1.2c0.3,0,0.5-0.1,0.7-0.2c0.2-0.1,0.3-0.3,0.3-0.6
			C218.7,5009.3,218.6,5009.1,218.3,5009z"/>
		<path class="st1" d="M221.5,5008.3h3.4v0.6h-2.8v1.4h2.6v0.5h-2.6v1.6h2.8v0.6h-3.4V5008.3z"/>
		<path class="st1" d="M230.4,5008.7c0.3,0.3,0.5,0.7,0.5,1.1h-0.6c-0.1-0.3-0.2-0.5-0.4-0.7c-0.2-0.2-0.5-0.3-0.9-0.3
			c-0.5,0-0.8,0.2-1.1,0.5s-0.4,0.8-0.4,1.5c0,0.5,0.1,1,0.4,1.3c0.2,0.3,0.6,0.5,1.1,0.5c0.5,0,0.8-0.2,1-0.5
			c0.1-0.2,0.2-0.4,0.3-0.7h0.6c-0.1,0.5-0.2,0.9-0.5,1.2c-0.4,0.4-0.9,0.6-1.5,0.6c-0.5,0-1-0.2-1.3-0.5c-0.5-0.4-0.7-1.1-0.7-2
			c0-0.7,0.2-1.3,0.5-1.7c0.4-0.5,0.9-0.7,1.6-0.7C229.6,5008.2,230.1,5008.4,230.4,5008.7z"/>
		<path class="st1" d="M233.2,5008.3h0.6v4.7h-0.6V5008.3z"/>
		<path class="st1" d="M237.6,5008.3h0.7l1.7,4.7h-0.7l-0.5-1.4H237l-0.5,1.4h-0.6L237.6,5008.3z M238.6,5011.1l-0.7-2.1l-0.8,2.1
			H238.6z"/>
		<path class="st1" d="M241.8,5008.3h0.6v4.1h2.3v0.6h-3V5008.3z"/>
		<path class="st1" d="M246.9,5008.3h0.6v4.7h-0.6V5008.3z"/>
		<path class="st1" d="M250.3,5011.5c0,0.3,0.1,0.5,0.2,0.6c0.2,0.3,0.6,0.5,1.1,0.5c0.2,0,0.4,0,0.6-0.1c0.4-0.1,0.5-0.4,0.5-0.7
			c0-0.3-0.1-0.4-0.2-0.5c-0.2-0.1-0.4-0.2-0.7-0.3l-0.6-0.1c-0.4-0.1-0.7-0.2-0.8-0.3c-0.3-0.2-0.4-0.5-0.4-0.9
			c0-0.4,0.1-0.8,0.4-1c0.3-0.3,0.7-0.4,1.2-0.4c0.5,0,0.9,0.1,1.2,0.4c0.3,0.2,0.5,0.6,0.5,1.1h-0.6c0-0.2-0.1-0.4-0.2-0.6
			c-0.2-0.2-0.5-0.4-0.9-0.4c-0.4,0-0.6,0.1-0.8,0.2s-0.2,0.3-0.2,0.5c0,0.2,0.1,0.4,0.3,0.5c0.1,0.1,0.4,0.2,0.8,0.3l0.6,0.1
			c0.3,0.1,0.5,0.2,0.7,0.3c0.3,0.2,0.4,0.5,0.4,0.9c0,0.5-0.2,0.9-0.5,1.1c-0.4,0.2-0.8,0.3-1.3,0.3c-0.6,0-1-0.1-1.3-0.4
			c-0.3-0.3-0.5-0.7-0.5-1.2H250.3z"/>
		<path class="st1" d="M258.9,5008.3v0.6h-1.6v4.1h-0.6v-4.1h-1.6v-0.6H258.9z"/>
	</g>
</g>
</svg>
