<?xml version="1.0" encoding="utf-8"?>
<!-- Generator: Adobe Illustrator 25.1.0, SVG Export Plug-In . SVG Version: 6.00 Build 0)  -->
<svg version="1.1" id="Layer_1" xmlns="http://www.w3.org/2000/svg" xmlns:xlink="http://www.w3.org/1999/xlink" x="0px" y="0px"
	 viewBox="0 0 236 111" style="enable-background:new 0 0 236 111;" xml:space="preserve">
<style type="text/css">
	.st0{fill:none;stroke:#1D543C;stroke-width:0.197;stroke-miterlimit:10;}
	.st1{fill:#B77537;}
	.st2{fill:#F4F0D7;}
	.st3{enable-background:new    ;}
	.st4{fill:#212936;}
</style>
<g id="Group_96" transform="translate(-55 -49)">
	<g id="Group_12" transform="translate(-5.271 -22.715)">
		<g id="Group_1" transform="translate(195.662 161.381)">
			<path id="Path_1" class="st0" d="M0,0"/>
		</g>
		<path id="Path_2" class="st0" d="M176.4,164.7"/>
		<path id="Path_3" class="st1" d="M285.9,124.7h-27.2v-8.9c0-0.5,0.2-1,0.5-1.3c0.3-0.4,0.8-0.6,1.3-0.5h6.8
			c3.4,0.1,6.7-0.5,9.9-1.6c2.6-0.9,5-2.4,7.1-4.3c1.9-1.8,3.3-4,4.2-6.5c0.9-2.6,1.4-5.3,1.4-8.1c0-2.8-0.5-5.6-1.7-8.1
			c-1.1-2.5-2.6-4.7-4.5-6.7c-1.9-1.9-4.2-3.4-6.7-4.5c-2.6-1.1-5.4-1.6-8.2-1.6h-23.7c-0.5,0-1,0.2-1.3,0.5
			c-0.4,0.3-0.6,0.8-0.5,1.3v50.4H237l-21.7-50.4c-0.2-0.5-0.6-0.9-1-1.2c-0.4-0.3-1-0.5-1.5-0.5H202c-0.6,0-1.1,0.2-1.6,0.5
			c-0.5,0.3-0.8,0.7-1,1.2l-21.6,50.4h-6c1.3-1.2,2.3-2.7,3.1-4.3c1.1-2.5,1.7-5.3,1.6-8c0.1-2.9-0.6-5.7-2-8.3
			c-1.2-2.1-2.9-3.9-4.9-5.3c-1.9-1.4-4-2.4-6.2-3.1c-2-0.6-4.1-1.2-6.1-1.6c-0.4-0.1-1.2-0.2-2.5-0.4c-1.4-0.2-2.7-0.6-4-1
			c-1.3-0.4-2.5-0.9-3.7-1.5c-1.1-0.6-1.6-1.2-1.6-1.9c0-0.6,0.2-1.3,0.7-1.7c0.5-0.4,1-0.7,1.7-0.9c0.7-0.2,1.4-0.3,2.1-0.3
			c0.7,0,1.4,0,2,0c2.1,0,4.2,0.4,6.3,1c2.6,0.9,5.1,2,7.4,3.5c0.4,0.3,0.9,0.4,1.4,0.3c0.5-0.1,0.9-0.4,1.2-0.8l6-8.6
			c0.3-0.4,0.4-0.9,0.4-1.4c-0.1-0.5-0.3-1-0.7-1.3c-3-2.3-6.3-4.2-9.9-5.5c-3.7-1.3-7.7-2-11.7-1.9c-2.6,0-5.1,0.3-7.7,0.8
			c-2.5,0.5-5,1.5-7.2,2.9c-2.2,1.4-4,3.3-5.3,5.5c-1.5,2.7-2.2,5.8-2.1,8.8c0,2.2,0.3,4.3,1.1,6.3c0.7,1.7,1.7,3.3,3,4.6
			c1.2,1.3,2.7,2.4,4.2,3.2c1.5,0.8,3.1,1.5,4.8,2.1c1.5,0.5,3.1,0.9,4.7,1.2c1.5,0.3,2.9,0.5,4,0.7c1.2,0.3,2.3,0.5,3.5,0.6
			c1,0.1,2,0.3,3,0.6c0.7,0.2,1.4,0.5,2.1,1c0.5,0.4,0.8,1,0.8,1.6c0,1.2-0.7,2.4-1.8,2.9c-1.6,0.7-3.4,1.1-5.2,1
			c-2.6,0-5.2-0.6-7.7-1.6c-2.9-1.1-5.7-2.5-8.3-4.3c-0.4-0.3-0.9-0.3-1.4-0.2c-0.5,0.1-0.9,0.4-1.2,0.8l-6,8.6
			c-0.3,0.4-0.4,0.9-0.4,1.4c0,0.5,0.3,1,0.7,1.3c1.4,1.1,2.8,2.2,4.3,3.1h-7.1l-21.7-50.4c-0.2-0.5-0.6-0.9-1-1.2
			c-0.4-0.3-1-0.5-1.5-0.5H92.1c-0.6,0-1.1,0.2-1.6,0.5c-0.5,0.3-0.8,0.7-1,1.2l-25.6,59.4c-0.4,0.8-0.6,1.7-0.6,2.6v19.9
			c0,3.6,2.9,6.5,6.5,6.5h211.5c2.5,0,4.7-1.4,5.8-3.7l4.6-9.5c0.4-0.9,0.6-1.8,0.6-2.8v-15.6C292.3,127.6,289.4,124.7,285.9,124.7
			C285.9,124.7,285.9,124.7,285.9,124.7z M196.5,122.8c0.2-0.5,0.6-0.9,1-1.2c0.5-0.3,1-0.5,1.6-0.5h16.3c0.5,0,1.1,0.2,1.5,0.5
			c0.5,0.3,0.8,0.7,1.1,1.2l0.8,1.9h-23.3L196.5,122.8z M87.7,121.6c0.5-0.3,1-0.5,1.6-0.5h16.3c0.5,0,1.1,0.2,1.5,0.5
			c0.5,0.3,0.8,0.7,1.1,1.2l0.8,1.9H85.8l0.9-1.9C86.9,122.4,87.3,121.9,87.7,121.6L87.7,121.6z"/>
		<g id="Group_2" transform="translate(188.565 107.264)">
			<path id="Path_4" class="st2" d="M2.2,0c1.1-0.1,2.1,0.8,2.2,1.9c0,0.1,0,0.1,0,0.2c0,1.1-0.9,2.1-2.1,2.1c0,0-0.1,0-0.1,0
				C1,4.3,0.1,3.4,0,2.3c0-0.1,0-0.1,0-0.2C0,0.9,0.9,0,2,0C2.1,0,2.1,0,2.2,0z M14.6,0c1.1-0.1,2.1,0.8,2.2,1.9c0,0.1,0,0.1,0,0.2
				c0,1.1-0.9,2.1-2.1,2.1c0,0-0.1,0-0.1,0c-1.1,0.1-2.1-0.8-2.2-1.9c0-0.1,0-0.1,0-0.2c0-1.1,0.9-2.1,2-2.1C14.5,0,14.5,0,14.6,0
				L14.6,0z"/>
		</g>
		<g id="Group_3" transform="translate(88.96 92.011)">
			<path id="Path_5" class="st2" d="M2.2,0c1.1-0.1,2.1,0.8,2.2,1.9c0,0.1,0,0.1,0,0.2c0,1.1-0.9,2.1-2.1,2.1c-0.1,0-0.1,0-0.2,0
				C1,4.3,0.1,3.4,0,2.3c0-0.1,0-0.1,0-0.2C0,0.9,0.9,0,2,0C2.1,0,2.1,0,2.2,0z M14.6,0c1.1-0.1,2.1,0.8,2.2,1.9c0,0.1,0,0.1,0,0.2
				c0,1.1-0.9,2.1-2.1,2.1c-0.1,0-0.1,0-0.2,0c-1.1,0.1-2.1-0.8-2.2-1.9c0-0.1,0-0.1,0-0.2c0-1.1,0.9-2.1,2-2.1
				C14.5,0,14.5,0,14.6,0z"/>
		</g>
		<path id="Path_6" class="st2" d="M78,100.9l-0.3,0.7h25.2l2,2.9l2.3-3.6L78,100.9z"/>
		<path id="Path_7" class="st2" d="M243.3,86.4v0.7h33.2l2,2.9l2.3-3.6L243.3,86.4z"/>
		<path id="Path_8" class="st2" d="M181.2,116.6l-0.3,0.7h24l2,2.9l2.3-3.6L181.2,116.6z"/>
		<g id="Group_4" transform="translate(263.201 77.615)">
			<path id="Path_9" class="st2" d="M2.2,0c1.1-0.1,2.1,0.8,2.2,1.9c0,0.1,0,0.1,0,0.2c0,1.1-0.9,2.1-2.1,2.1c0,0-0.1,0-0.1,0
				C1,4.3,0.1,3.4,0,2.3c0-0.1,0-0.1,0-0.2C0,0.9,0.9,0,2,0C2.1,0,2.1,0,2.2,0z M14.6,0c1.1-0.1,2.1,0.8,2.2,1.9c0,0.1,0,0.1,0,0.2
				c0,1.1-0.9,2.1-2.1,2.1c-0.1,0-0.1,0-0.2,0c-1.1,0.1-2.1-0.8-2.2-1.9c0-0.1,0-0.1,0-0.2c0-1.1,0.9-2.1,2-2.1
				C14.5,0,14.5,0,14.6,0L14.6,0z"/>
		</g>
		<path id="Path_10" class="st2" d="M162.8,81.8l0.3,4.3l3.1-1.6l4.4,2.4l0.4-0.6L162.8,81.8z"/>
		<circle id="Ellipse_1" class="st2" cx="167.5" cy="79" r="2.2"/>
		<g id="Group_5" transform="translate(73.073 136.982)">
			<path id="Path_11" class="st2" d="M11.6,18.3H9.1l-2-11.8h0l-2,11.8H2.7L0,0.2h2.8L4,11.7h0.1l2-11.5h2L10.2,12h0l1.2-11.8h2.8
				L11.6,18.3z"/>
			<path id="Path_12" class="st2" d="M19.8,0.2h2.6v18.2h-2.6V0.2z"/>
			<path id="Path_13" class="st2" d="M28.8,0.2h2.6v15.6h5.2v2.6h-7.8V0.2z"/>
			<path id="Path_14" class="st2" d="M42,0.2h3.8c2.9,0,4.6,1.8,4.6,4.7v8.5c0,3.4-1.7,5-4.8,5H42L42,0.2z M44.6,15.9h1.2
				c1.5,0,2-0.7,2-2.3V4.8c0-1.4-0.5-2.2-2-2.2h-1.2V15.9z"/>
			<path id="Path_15" class="st2" d="M56.7,0.2h2.6v15.6h5.2v2.6h-7.8V0.2z"/>
			<path id="Path_16" class="st2" d="M70.1,0.2h2.6v18.2h-2.6V0.2z"/>
			<path id="Path_17" class="st2" d="M79,0.2h7.8v2.4h-5.2v5.5h4.5v2.4h-4.5v7.8H79V0.2z"/>
			<path id="Path_18" class="st2" d="M92.3,0.2h7.8v2.4h-5.2v5.3h4.5v2.4h-4.5v5.3h5.2v2.6h-7.8V0.2z"/>
			<path id="Path_19" class="st2" d="M114.1,0.2h4.2c3.1,0,4.6,1.8,4.6,5.3c0,2.1-0.6,3.6-2.2,4.5l2.8,8.3h-2.8l-2.4-7.8h-1.6v7.8
				h-2.6V0.2z M116.7,8.3h1.5c1.8,0,2.1-1,2.1-2.8c0-1.8-0.3-2.8-2.2-2.8h-1.4V8.3z"/>
			<path id="Path_20" class="st2" d="M128.8,0.2h7.8v2.4h-5.2v5.3h4.5v2.4h-4.5v5.3h5.2v2.6h-7.8V0.2z"/>
			<path id="Path_21" class="st2" d="M142,0.2h2.5l3.3,9.6h0.1l3.3-9.6h2.5v18.2h-2.6v-11h0l-2.6,7.8h-1.3l-2.5-7.8h-0.1v11H142
				L142,0.2z"/>
			<path id="Path_22" class="st2" d="M159.9,4.4c-0.1-2.3,1.7-4.3,4.1-4.4c0.1,0,0.2,0,0.3,0c2.4-0.1,4.3,1.8,4.4,4.1
				c0,0.1,0,0.2,0,0.3V14c0.1,2.3-1.7,4.3-4.1,4.4c-0.1,0-0.2,0-0.3,0c-2.4,0.1-4.3-1.8-4.4-4.2c0-0.1,0-0.2,0-0.3V4.4z M162.5,14
				c-0.1,0.9,0.6,1.7,1.5,1.8c0.1,0,0.2,0,0.2,0c0.9,0,1.7-0.7,1.8-1.6c0-0.1,0-0.2,0-0.2V4.4c0.1-0.9-0.6-1.7-1.5-1.8
				c-0.1,0-0.2,0-0.2,0c-0.9-0.1-1.7,0.7-1.8,1.6c0,0.1,0,0.2,0,0.2V14z"/>
			<path id="Path_23" class="st2" d="M179.4,18.3h-2.3l-3.7-18.2h2.8l2.1,12.7h0l2.1-12.7h2.8L179.4,18.3z"/>
			<path id="Path_24" class="st2" d="M190.4,0.2h2.2l4.1,18.2H194l-0.8-3.9h-3.5l-0.8,3.9h-2.6L190.4,0.2z M191.5,5.4L191.5,5.4
				l-1.3,6.6h2.6L191.5,5.4z"/>
			<path id="Path_25" class="st2" d="M201.7,0.2h2.6v15.6h5.1v2.6h-7.8L201.7,0.2z"/>
		</g>
		<g id="Group_6" transform="translate(197.073 161.381)">
			<path id="Path_26" class="st0" d="M0,0"/>
		</g>
		<path id="Path_27" class="st0" d="M177.8,164.7"/>
	</g>
	<g class="st3">
		<path class="st4" d="M56.1,151.5H59c0.6,0,1,0.2,1.4,0.5c0.4,0.3,0.5,0.8,0.5,1.4c0,0.5-0.2,0.9-0.5,1.3c-0.3,0.4-0.8,0.6-1.4,0.6
			h-2v2.7h-0.9V151.5z M59.5,152.4c-0.2-0.1-0.5-0.1-0.8-0.1H57v2.2h1.7c0.4,0,0.7-0.1,0.9-0.3c0.2-0.2,0.4-0.5,0.4-0.9
			C60,152.9,59.9,152.6,59.5,152.4z"/>
		<path class="st4" d="M63.9,151.5h4.7v0.8h-3.8v2h3.5v0.7h-3.5v2.2h3.9v0.8h-4.8V151.5z"/>
		<path class="st4" d="M72.2,155.9c0,0.4,0.1,0.7,0.2,0.9c0.3,0.4,0.8,0.6,1.5,0.6c0.3,0,0.6,0,0.9-0.1c0.5-0.2,0.8-0.5,0.8-1
			c0-0.4-0.1-0.6-0.3-0.8c-0.2-0.1-0.6-0.3-1-0.4l-0.8-0.2c-0.6-0.1-0.9-0.3-1.2-0.4c-0.4-0.3-0.6-0.7-0.6-1.2
			c0-0.6,0.2-1.1,0.6-1.4c0.4-0.4,0.9-0.6,1.7-0.6c0.7,0,1.2,0.2,1.7,0.5c0.5,0.3,0.7,0.8,0.7,1.6h-0.8c0-0.3-0.1-0.6-0.3-0.8
			c-0.3-0.3-0.7-0.5-1.3-0.5c-0.5,0-0.9,0.1-1.1,0.3s-0.3,0.5-0.3,0.8c0,0.3,0.1,0.5,0.4,0.7c0.2,0.1,0.5,0.2,1.1,0.4l0.9,0.2
			c0.4,0.1,0.7,0.2,1,0.4c0.4,0.3,0.6,0.7,0.6,1.3c0,0.7-0.3,1.2-0.8,1.5s-1.1,0.5-1.8,0.5c-0.8,0-1.4-0.2-1.8-0.6
			c-0.4-0.4-0.7-1-0.7-1.7H72.2z"/>
		<path class="st4" d="M84.1,151.5v0.8H82v5.7h-0.9v-5.7h-2.2v-0.8H84.1z"/>
		<path class="st4" d="M91.5,153.6c-0.1-0.2-0.1-0.4-0.1-0.6c0-0.4,0.1-0.8,0.4-1c0.3-0.3,0.7-0.4,1.1-0.4c0.4,0,0.8,0.1,1,0.4
			c0.3,0.3,0.4,0.6,0.4,0.9c0,0.4-0.1,0.8-0.4,1.1c-0.2,0.2-0.4,0.4-0.8,0.6l1.2,1.4c0.1-0.2,0.1-0.4,0.2-0.5c0-0.1,0.1-0.3,0.1-0.5
			h0.8c0,0.4-0.1,0.8-0.3,1.2c-0.1,0.4-0.2,0.5-0.2,0.5L96,158h-1l-0.6-0.7c-0.2,0.3-0.5,0.5-0.7,0.6c-0.3,0.2-0.7,0.3-1.2,0.3
			c-0.7,0-1.2-0.2-1.5-0.5c-0.3-0.4-0.5-0.8-0.5-1.2c0-0.5,0.1-0.9,0.4-1.2c0.2-0.2,0.5-0.4,1-0.7C91.8,154.1,91.6,153.8,91.5,153.6
			z M93.4,157.2c0.2-0.1,0.4-0.3,0.5-0.5l-1.5-1.8c-0.4,0.3-0.7,0.5-0.8,0.6c-0.2,0.2-0.3,0.5-0.3,0.8c0,0.3,0.1,0.6,0.4,0.8
			c0.2,0.2,0.5,0.3,0.8,0.3C92.9,157.5,93.2,157.4,93.4,157.2z M93.3,153.6c0.2-0.2,0.3-0.4,0.3-0.7c0-0.2-0.1-0.4-0.2-0.5
			c-0.1-0.1-0.3-0.2-0.5-0.2c-0.3,0-0.5,0.1-0.7,0.3c-0.1,0.1-0.1,0.2-0.1,0.4c0,0.2,0,0.3,0.1,0.5s0.3,0.4,0.5,0.6
			C93,153.9,93.2,153.7,93.3,153.6z"/>
		<path class="st4" d="M103.4,151.5l1.2,5.2l1.5-5.2h0.9l1.5,5.3l1.2-5.3h1L109,158h-0.9l-1.5-5.4l-1.5,5.4h-0.9l-1.7-6.5H103.4z"/>
		<path class="st4" d="M113.5,151.5h0.9v6.5h-0.9V151.5z"/>
		<path class="st4" d="M117.6,151.5h0.9v5.7h3.2v0.8h-4.1V151.5z"/>
		<path class="st4" d="M124.4,151.5h2.6c0.9,0,1.6,0.3,2,0.9c0.4,0.6,0.6,1.3,0.6,2.2c0,0.7-0.1,1.3-0.4,1.9c-0.4,1-1.2,1.5-2.3,1.5
			h-2.6V151.5z M126.8,157.3c0.3,0,0.5,0,0.7-0.1c0.3-0.1,0.6-0.3,0.8-0.7c0.2-0.3,0.3-0.6,0.4-1c0-0.2,0.1-0.5,0.1-0.7
			c0-0.8-0.2-1.4-0.5-1.9c-0.3-0.4-0.8-0.7-1.5-0.7h-1.5v5H126.8z"/>
		<path class="st4" d="M132.7,151.5h0.9v5.7h3.2v0.8h-4.1V151.5z"/>
		<path class="st4" d="M139.7,151.5h0.9v6.5h-0.9V151.5z"/>
		<path class="st4" d="M143.9,151.5h4.5v0.8h-3.6v2h3.2v0.8h-3.2v2.9h-0.9V151.5z"/>
		<path class="st4" d="M151.2,151.5h4.7v0.8H152v2h3.5v0.7H152v2.2h3.9v0.8h-4.8V151.5z"/>
		<path class="st4" d="M163.3,151.5h2.9c0.5,0,0.9,0.1,1.2,0.2c0.6,0.3,0.9,0.8,0.9,1.5c0,0.4-0.1,0.7-0.2,0.9s-0.4,0.4-0.7,0.6
			c0.3,0.1,0.4,0.2,0.6,0.4c0.1,0.2,0.2,0.4,0.2,0.8l0,0.9c0,0.2,0,0.4,0.1,0.5c0.1,0.2,0.1,0.3,0.3,0.4v0.1h-1.1
			c0-0.1-0.1-0.1-0.1-0.2s0-0.3,0-0.5l-0.1-1.1c0-0.4-0.2-0.7-0.5-0.8c-0.2-0.1-0.4-0.1-0.8-0.1h-1.9v2.8h-0.9V151.5z M166.1,154.5
			c0.4,0,0.7-0.1,0.9-0.2c0.2-0.2,0.3-0.5,0.3-0.9c0-0.5-0.2-0.8-0.5-0.9c-0.2-0.1-0.4-0.1-0.7-0.1h-2.1v2.2H166.1z"/>
		<path class="st4" d="M171.6,151.5h4.7v0.8h-3.8v2h3.5v0.7h-3.5v2.2h3.9v0.8h-4.8V151.5z"/>
		<path class="st4" d="M179.3,151.5h1.3l1.9,5.5l1.8-5.5h1.2v6.5h-0.8v-3.8c0-0.1,0-0.3,0-0.7s0-0.6,0-1l-1.8,5.4h-0.9l-1.9-5.4v0.2
			c0,0.2,0,0.4,0,0.7c0,0.3,0,0.6,0,0.7v3.8h-0.8V151.5z"/>
		<path class="st4" d="M193.9,152.5c0.4,0.6,0.6,1.3,0.6,2.2c0,1-0.2,1.8-0.7,2.4c-0.6,0.8-1.4,1.1-2.5,1.1c-1,0-1.8-0.3-2.3-1
			c-0.5-0.6-0.8-1.4-0.8-2.4c0-0.9,0.2-1.6,0.7-2.2c0.6-0.8,1.4-1.2,2.5-1.2C192.5,151.4,193.4,151.7,193.9,152.5z M193.1,156.6
			c0.3-0.6,0.5-1.2,0.5-1.9c0-0.8-0.2-1.4-0.6-1.8c-0.4-0.5-0.9-0.7-1.6-0.7c-0.7,0-1.2,0.2-1.6,0.7s-0.6,1.1-0.6,2
			c0,0.7,0.2,1.3,0.5,1.8c0.4,0.5,0.9,0.7,1.8,0.7C192.2,157.4,192.8,157.1,193.1,156.6z"/>
		<path class="st4" d="M197.9,151.5l1.9,5.5l1.8-5.5h1l-2.4,6.5h-0.9l-2.4-6.5H197.9z"/>
		<path class="st4" d="M206.4,151.5h1l2.3,6.5h-1l-0.7-1.9h-2.6l-0.7,1.9H204L206.4,151.5z M207.8,155.4l-1-2.9l-1,2.9H207.8z"/>
		<path class="st4" d="M212.3,151.5h0.9v5.7h3.2v0.8h-4.1V151.5z"/>
		<path class="st4" d="M223.7,155.9c0,0.4,0.1,0.7,0.2,0.9c0.3,0.4,0.8,0.6,1.5,0.6c0.3,0,0.6,0,0.9-0.1c0.5-0.2,0.8-0.5,0.8-1
			c0-0.4-0.1-0.6-0.3-0.8c-0.2-0.1-0.6-0.3-1-0.4l-0.8-0.2c-0.6-0.1-0.9-0.3-1.2-0.4c-0.4-0.3-0.6-0.7-0.6-1.2
			c0-0.6,0.2-1.1,0.6-1.4c0.4-0.4,0.9-0.6,1.7-0.6c0.7,0,1.2,0.2,1.7,0.5c0.5,0.3,0.7,0.8,0.7,1.6h-0.8c0-0.3-0.1-0.6-0.3-0.8
			c-0.3-0.3-0.7-0.5-1.3-0.5c-0.5,0-0.8,0.1-1.1,0.3c-0.2,0.2-0.3,0.5-0.3,0.8c0,0.3,0.1,0.5,0.4,0.7c0.2,0.1,0.5,0.2,1.1,0.4
			l0.9,0.2c0.4,0.1,0.7,0.2,1,0.4c0.4,0.3,0.6,0.7,0.6,1.3c0,0.7-0.3,1.2-0.8,1.5c-0.5,0.3-1.1,0.5-1.8,0.5c-0.8,0-1.4-0.2-1.8-0.6
			c-0.4-0.4-0.7-1-0.7-1.7H223.7z"/>
		<path class="st4" d="M231,151.5h2.9c0.6,0,1,0.2,1.4,0.5c0.4,0.3,0.5,0.8,0.5,1.4c0,0.5-0.2,0.9-0.5,1.3c-0.3,0.4-0.8,0.6-1.4,0.6
			h-2v2.7H231V151.5z M234.4,152.4c-0.2-0.1-0.5-0.1-0.8-0.1h-1.7v2.2h1.7c0.4,0,0.7-0.1,0.9-0.3c0.2-0.2,0.4-0.5,0.4-0.9
			C234.9,152.9,234.7,152.6,234.4,152.4z"/>
		<path class="st4" d="M238.8,151.5h4.7v0.8h-3.8v2h3.5v0.7h-3.5v2.2h3.9v0.8h-4.8V151.5z"/>
		<path class="st4" d="M251.1,152c0.4,0.4,0.7,0.9,0.7,1.5H251c-0.1-0.4-0.3-0.7-0.6-1s-0.7-0.4-1.2-0.4c-0.6,0-1.1,0.2-1.5,0.7
			s-0.6,1.1-0.6,2.1c0,0.8,0.2,1.4,0.5,1.8s0.9,0.7,1.6,0.7c0.6,0,1.1-0.2,1.4-0.7c0.2-0.3,0.3-0.6,0.4-1h0.9
			c-0.1,0.7-0.3,1.2-0.7,1.7c-0.5,0.6-1.2,0.8-2,0.8c-0.7,0-1.4-0.2-1.9-0.7c-0.7-0.6-1-1.5-1-2.8c0-1,0.2-1.7,0.7-2.3
			c0.5-0.7,1.3-1,2.2-1C250,151.4,250.6,151.6,251.1,152z"/>
		<path class="st4" d="M255,151.5h0.9v6.5H255V151.5z"/>
		<path class="st4" d="M261,151.5h1l2.3,6.5h-1l-0.7-1.9h-2.6l-0.7,1.9h-0.9L261,151.5z M262.4,155.4l-1-2.9l-1,2.9H262.4z"/>
		<path class="st4" d="M266.9,151.5h0.9v5.7h3.2v0.8h-4.1V151.5z"/>
		<path class="st4" d="M273.9,151.5h0.9v6.5h-0.9V151.5z"/>
		<path class="st4" d="M278.6,155.9c0,0.4,0.1,0.7,0.2,0.9c0.3,0.4,0.8,0.6,1.5,0.6c0.3,0,0.6,0,0.9-0.1c0.5-0.2,0.8-0.5,0.8-1
			c0-0.4-0.1-0.6-0.3-0.8c-0.2-0.1-0.6-0.3-1-0.4l-0.8-0.2c-0.6-0.1-0.9-0.3-1.2-0.4c-0.4-0.3-0.6-0.7-0.6-1.2
			c0-0.6,0.2-1.1,0.6-1.4c0.4-0.4,0.9-0.6,1.7-0.6c0.7,0,1.2,0.2,1.7,0.5c0.5,0.3,0.7,0.8,0.7,1.6h-0.8c0-0.3-0.1-0.6-0.3-0.8
			c-0.3-0.3-0.7-0.5-1.3-0.5c-0.5,0-0.9,0.1-1.1,0.3c-0.2,0.2-0.3,0.5-0.3,0.8c0,0.3,0.1,0.5,0.4,0.7c0.2,0.1,0.5,0.2,1.1,0.4
			l0.9,0.2c0.4,0.1,0.8,0.2,1,0.4c0.4,0.3,0.6,0.7,0.6,1.3c0,0.7-0.3,1.2-0.8,1.5c-0.5,0.3-1.1,0.5-1.8,0.5c-0.8,0-1.4-0.2-1.8-0.6
			c-0.4-0.4-0.7-1-0.7-1.7H278.6z"/>
		<path class="st4" d="M290.5,151.5v0.8h-2.2v5.7h-0.9v-5.7h-2.2v-0.8H290.5z"/>
	</g>
</g>
</svg>
