<svg width="235" height="110" viewBox="0 0 235 110" fill="none" xmlns="http://www.w3.org/2000/svg">
<path d="M224.629 52.985H197.429V44.085C197.429 43.585 197.629 43.085 197.929 42.785C198.229 42.385 198.729 42.185 199.229 42.285H206.029C209.429 42.385 212.729 41.785 215.929 40.685C218.529 39.785 220.929 38.285 223.029 36.385C224.929 34.585 226.329 32.385 227.229 29.885C228.129 27.285 228.629 24.585 228.629 21.785C228.629 18.985 228.129 16.185 226.929 13.685C225.829 11.185 224.329 8.985 222.429 6.985C220.529 5.085 218.229 3.585 215.729 2.485C213.129 1.385 210.329 0.885001 207.529 0.885001H183.829C183.329 0.885001 182.829 1.085 182.529 1.385C182.129 1.685 181.929 2.185 182.029 2.685V53.085H175.729L154.029 2.685C153.829 2.185 153.429 1.785 153.029 1.485C152.629 1.185 152.029 0.984999 151.529 0.984999H140.729C140.129 0.984999 139.629 1.185 139.129 1.485C138.629 1.785 138.329 2.185 138.129 2.685L116.529 53.085H110.529C111.829 51.885 112.829 50.385 113.629 48.785C114.729 46.285 115.329 43.485 115.229 40.785C115.329 37.885 114.629 35.085 113.229 32.485C112.029 30.385 110.329 28.585 108.329 27.185C106.429 25.785 104.329 24.785 102.129 24.085C100.129 23.485 98.029 22.885 96.029 22.485C95.629 22.385 94.829 22.285 93.529 22.085C92.129 21.885 90.829 21.485 89.529 21.085C88.229 20.685 87.029 20.185 85.829 19.585C84.729 18.985 84.229 18.385 84.229 17.685C84.229 17.085 84.429 16.385 84.929 15.985C85.429 15.585 85.929 15.285 86.629 15.085C87.329 14.885 88.029 14.785 88.729 14.785C89.429 14.785 90.129 14.785 90.729 14.785C92.829 14.785 94.929 15.185 97.029 15.785C99.629 16.685 102.129 17.785 104.429 19.285C104.829 19.585 105.329 19.685 105.829 19.585C106.329 19.485 106.729 19.185 107.029 18.785L113.029 10.185C113.329 9.785 113.429 9.285 113.429 8.785C113.329 8.285 113.129 7.785 112.729 7.485C109.729 5.185 106.429 3.285 102.829 1.985C99.129 0.684999 95.129 -0.0149949 91.129 0.0850051C88.529 0.0850051 86.029 0.385001 83.429 0.885001C80.929 1.385 78.429 2.385 76.229 3.785C74.029 5.185 72.229 7.085 70.929 9.285C69.429 11.985 68.729 15.085 68.829 18.085C68.829 20.285 69.129 22.385 69.929 24.385C70.629 26.085 71.629 27.685 72.929 28.985C74.129 30.285 75.629 31.385 77.129 32.185C78.629 32.985 80.229 33.685 81.929 34.285C83.429 34.785 85.029 35.185 86.629 35.485C88.129 35.785 89.529 35.985 90.629 36.185C91.829 36.485 92.929 36.685 94.129 36.785C95.129 36.885 96.129 37.085 97.129 37.385C97.829 37.585 98.529 37.885 99.229 38.385C99.729 38.785 100.029 39.385 100.029 39.985C100.029 41.185 99.329 42.385 98.229 42.885C96.629 43.585 94.829 43.985 93.029 43.885C90.429 43.885 87.829 43.285 85.329 42.285C82.429 41.185 79.629 39.785 77.029 37.985C76.629 37.685 76.129 37.685 75.629 37.785C75.129 37.885 74.729 38.185 74.429 38.585L68.429 47.185C68.129 47.585 68.029 48.085 68.029 48.585C68.029 49.085 68.329 49.585 68.729 49.885C70.129 50.985 71.529 52.085 73.029 52.985H65.929L44.229 2.58501C44.029 2.08501 43.629 1.685 43.229 1.385C42.829 1.085 42.229 0.885001 41.729 0.885001H30.829C30.229 0.885001 29.729 1.085 29.229 1.385C28.729 1.685 28.429 2.08501 28.229 2.58501L2.62901 61.985C2.22901 62.785 2.02901 63.685 2.02901 64.585V84.485C2.02901 88.085 4.92901 90.985 8.52901 90.985H220.029C222.529 90.985 224.729 89.585 225.829 87.285L230.429 77.785C230.829 76.885 231.029 75.985 231.029 74.985V59.385C231.029 55.885 228.129 52.985 224.629 52.985ZM135.229 51.085C135.429 50.585 135.829 50.185 136.229 49.885C136.729 49.585 137.229 49.385 137.829 49.385H154.129C154.629 49.385 155.229 49.585 155.629 49.885C156.129 50.185 156.429 50.585 156.729 51.085L157.529 52.985H134.229L135.229 51.085ZM26.429 49.885C26.929 49.585 27.429 49.385 28.029 49.385H44.329C44.829 49.385 45.429 49.585 45.829 49.885C46.329 50.185 46.629 50.585 46.929 51.085L47.729 52.985H24.529L25.429 51.085C25.629 50.685 26.029 50.185 26.429 49.885Z" fill="#212936"/>
<path d="M129.494 35.549C130.594 35.449 131.594 36.349 131.694 37.449C131.694 37.549 131.694 37.549 131.694 37.649C131.694 38.749 130.794 39.749 129.594 39.749H129.494C128.294 39.849 127.394 38.949 127.294 37.849C127.294 37.749 127.294 37.749 127.294 37.649C127.294 36.449 128.194 35.549 129.294 35.549C129.394 35.549 129.394 35.549 129.494 35.549ZM141.894 35.549C142.994 35.449 143.994 36.349 144.094 37.449C144.094 37.549 144.094 37.549 144.094 37.649C144.094 38.749 143.194 39.749 141.994 39.749H141.894C140.794 39.849 139.794 38.949 139.694 37.849C139.694 37.749 139.694 37.749 139.694 37.649C139.694 36.549 140.594 35.549 141.694 35.549C141.794 35.549 141.794 35.549 141.894 35.549Z" fill="#F4F0D7"/>
<path d="M29.889 20.296C30.989 20.196 31.989 21.096 32.089 22.196C32.089 22.296 32.089 22.296 32.089 22.396C32.089 23.496 31.189 24.496 29.989 24.496C29.889 24.496 29.889 24.496 29.789 24.496C28.689 24.596 27.789 23.696 27.689 22.596C27.689 22.496 27.689 22.496 27.689 22.396C27.689 21.196 28.589 20.296 29.689 20.296C29.789 20.296 29.789 20.296 29.889 20.296ZM42.289 20.296C43.389 20.196 44.389 21.096 44.489 22.196C44.489 22.296 44.489 22.296 44.489 22.396C44.489 23.496 43.589 24.496 42.389 24.496C42.289 24.496 42.289 24.496 42.189 24.496C41.089 24.596 40.089 23.696 39.989 22.596C39.989 22.496 39.989 22.496 39.989 22.396C39.989 21.296 40.889 20.296 41.989 20.296C42.189 20.296 42.189 20.296 42.289 20.296Z" fill="#F4F0D7"/>
<path d="M16.729 29.185L16.429 29.885H41.629L43.629 32.785L45.929 29.185H16.729Z" fill="#F4F0D7"/>
<path d="M182.029 14.685V15.385H215.229L217.229 18.285L219.529 14.685H182.029Z" fill="#F4F0D7"/>
<path d="M119.929 44.885L119.629 45.585H143.629L145.629 48.485L147.929 44.885H119.929Z" fill="#F4F0D7"/>
<path d="M204.13 5.9C205.23 5.8 206.23 6.7 206.33 7.8C206.33 7.9 206.33 7.9 206.33 8C206.33 9.1 205.43 10.1 204.23 10.1H204.13C202.93 10.2 202.03 9.3 201.93 8.2C201.93 8.1 201.93 8.1 201.93 8C201.93 6.8 202.83 5.9 203.93 5.9C204.03 5.9 204.03 5.9 204.13 5.9ZM216.53 5.9C217.63 5.8 218.63 6.7 218.73 7.8C218.73 7.9 218.73 7.9 218.73 8C218.73 9.1 217.83 10.1 216.63 10.1C216.53 10.1 216.53 10.1 216.43 10.1C215.33 10.2 214.33 9.3 214.23 8.2C214.23 8.1 214.23 8.1 214.23 8C214.23 6.9 215.13 5.9 216.23 5.9C216.43 5.9 216.43 5.9 216.53 5.9Z" fill="#F4F0D7"/>
<path d="M101.529 10.085L101.829 14.385L104.929 12.785L109.329 15.185L109.729 14.585L101.529 10.085Z" fill="#F4F0D7"/>
<path d="M106.229 9.485C107.444 9.485 108.429 8.50003 108.429 7.285C108.429 6.06998 107.444 5.08501 106.229 5.08501C105.014 5.08501 104.029 6.06998 104.029 7.285C104.029 8.50003 105.014 9.485 106.229 9.485Z" fill="#F4F0D7"/>
<path d="M23.402 83.567H20.902L18.902 71.767L16.902 83.567H14.502L11.802 65.467H14.602L15.802 76.967H15.902L17.902 65.467H19.902L22.002 77.267L23.202 65.467H26.002L23.402 83.567Z" fill="#F4F0D7"/>
<path d="M31.602 65.467H34.202V83.667H31.602V65.467Z" fill="#F4F0D7"/>
<path d="M40.602 65.467H43.202V81.067H48.402V83.667H40.602V65.467Z" fill="#F4F0D7"/>
<path d="M53.802 65.467H57.602C60.502 65.467 62.202 67.267 62.202 70.167V78.667C62.202 82.067 60.502 83.667 57.402 83.667H53.802V65.467ZM56.402 81.167H57.602C59.102 81.167 59.602 80.467 59.602 78.867V70.067C59.602 68.667 59.102 67.867 57.602 67.867H56.402V81.167Z" fill="#F4F0D7"/>
<path d="M68.502 65.467H71.102V81.067H76.302V83.667H68.502V65.467Z" fill="#F4F0D7"/>
<path d="M81.902 65.467H84.502V83.667H81.902V65.467Z" fill="#F4F0D7"/>
<path d="M90.802 65.467H98.602V67.867H93.402V73.367H97.902V75.767H93.402V83.567H90.802V65.467Z" fill="#F4F0D7"/>
<path d="M104.102 65.467H111.902V67.867H106.702V73.167H111.202V75.567H106.702V80.867H111.902V83.467H104.102V65.467Z" fill="#F4F0D7"/>
<path d="M125.902 65.467H130.102C133.202 65.467 134.702 67.267 134.702 70.767C134.702 72.867 134.102 74.367 132.502 75.267L135.302 83.567H132.502L130.102 75.767H128.502V83.567H125.902V65.467ZM128.502 73.567H130.002C131.802 73.567 132.102 72.567 132.102 70.767C132.102 68.967 131.802 67.967 129.902 67.967H128.502V73.567V73.567Z" fill="#F4F0D7"/>
<path d="M140.602 65.467H148.402V67.867H143.202V73.167H147.702V75.567H143.202V80.867H148.402V83.467H140.602V65.467Z" fill="#F4F0D7"/>
<path d="M153.802 65.467H156.302L159.602 75.067H159.702L163.002 65.467H165.502V83.667H162.902V72.667L160.302 80.467H159.002L156.502 72.667H156.402V83.667H153.802V65.467Z" fill="#F4F0D7"/>
<path d="M171.702 69.667C171.602 67.367 173.402 65.367 175.802 65.267C175.902 65.267 176.002 65.267 176.102 65.267C178.502 65.167 180.402 67.067 180.502 69.367C180.502 69.467 180.502 69.567 180.502 69.667V79.267C180.602 81.567 178.802 83.567 176.402 83.667C176.302 83.667 176.202 83.667 176.102 83.667C173.702 83.767 171.802 81.867 171.702 79.467C171.702 79.367 171.702 79.267 171.702 79.167V69.667ZM174.302 79.267C174.202 80.167 174.902 80.967 175.802 81.067C175.902 81.067 176.002 81.067 176.002 81.067C176.902 81.067 177.702 80.367 177.802 79.467C177.802 79.367 177.802 79.267 177.802 79.267V69.667C177.902 68.767 177.202 67.967 176.302 67.867C176.202 67.867 176.102 67.867 176.102 67.867C175.202 67.767 174.402 68.567 174.302 69.467C174.302 69.567 174.302 69.667 174.302 69.667V79.267Z" fill="#F4F0D7"/>
<path d="M191.202 83.567H188.902L185.202 65.367H188.002L190.102 78.067L192.202 65.367H195.002L191.202 83.567Z" fill="#F4F0D7"/>
<path d="M202.202 65.467H204.402L208.502 83.667H205.802L205.002 79.767H201.502L200.702 83.667H198.102L202.202 65.467ZM203.302 70.667L202.002 77.267H204.602L203.302 70.667Z" fill="#F4F0D7"/>
<path d="M213.502 65.467H216.102V81.067H221.202V83.667H213.402L213.502 65.467Z" fill="#F4F0D7"/>
<path d="M0.100006 102.5H3.00001C3.60001 102.5 4.00001 102.7 4.40001 103C4.80001 103.3 4.90001 103.8 4.90001 104.4C4.90001 104.9 4.70001 105.3 4.40001 105.7C4.10001 106.1 3.60001 106.3 3.00001 106.3H1.00001V109H0.100006V102.5ZM3.50001 103.4C3.30001 103.3 3.00001 103.3 2.70001 103.3H1.00001V105.5H2.70001C3.10001 105.5 3.40001 105.4 3.60001 105.2C3.80001 105 4.00001 104.7 4.00001 104.3C4.00001 103.9 3.90001 103.6 3.50001 103.4Z" fill="#F2EDDC"/>
<path d="M7.90001 102.5H12.6V103.3H8.80001V105.3H12.3V106H8.80001V108.2H12.7V109H7.90001V102.5V102.5Z" fill="#F2EDDC"/>
<path d="M16.2 106.9C16.2 107.3 16.3 107.6 16.4 107.8C16.7 108.2 17.2 108.4 17.9 108.4C18.2 108.4 18.5 108.4 18.8 108.3C19.3 108.1 19.6 107.8 19.6 107.3C19.6 106.9 19.5 106.7 19.3 106.5C19.1 106.4 18.7 106.2 18.3 106.1L17.5 105.9C16.9 105.8 16.6 105.6 16.3 105.5C15.9 105.2 15.7 104.8 15.7 104.3C15.7 103.7 15.9 103.2 16.3 102.9C16.7 102.5 17.2 102.3 18 102.3C18.7 102.3 19.2 102.5 19.7 102.8C20.2 103.1 20.4 103.6 20.4 104.4H19.6C19.6 104.1 19.5 103.8 19.3 103.6C19 103.3 18.6 103.1 18 103.1C17.5 103.1 17.1 103.2 16.9 103.4C16.7 103.6 16.6 103.9 16.6 104.2C16.6 104.5 16.7 104.7 17 104.9C17.2 105 17.5 105.1 18.1 105.3L19 105.5C19.4 105.6 19.7 105.7 20 105.9C20.4 106.2 20.6 106.6 20.6 107.2C20.6 107.9 20.3 108.4 19.8 108.7C19.3 109 18.7 109.2 18 109.2C17.2 109.2 16.6 109 16.2 108.6C15.8 108.2 15.5 107.6 15.5 106.9H16.2V106.9Z" fill="#F2EDDC"/>
<path d="M28.1 102.5V103.3H26V109H25.1V103.3H22.9V102.5H28.1Z" fill="#F2EDDC"/>
<path d="M35.5 104.6C35.4 104.4 35.4 104.2 35.4 104C35.4 103.6 35.5 103.2 35.8 103C36.1 102.7 36.5 102.6 36.9 102.6C37.3 102.6 37.7 102.7 37.9 103C38.2 103.3 38.3 103.6 38.3 103.9C38.3 104.3 38.2 104.7 37.9 105C37.7 105.2 37.5 105.4 37.1 105.6L38.3 107C38.4 106.8 38.4 106.6 38.5 106.5C38.5 106.4 38.6 106.2 38.6 106H39.4C39.4 106.4 39.3 106.8 39.1 107.2C39 107.6 38.9 107.7 38.9 107.7L40 109H39L38.4 108.3C38.2 108.6 37.9 108.8 37.7 108.9C37.4 109.1 37 109.2 36.5 109.2C35.8 109.2 35.3 109 35 108.7C34.7 108.3 34.5 107.9 34.5 107.5C34.5 107 34.6 106.6 34.9 106.3C35.1 106.1 35.4 105.9 35.9 105.6C35.8 105.1 35.6 104.8 35.5 104.6ZM37.4 108.2C37.6 108.1 37.8 107.9 37.9 107.7L36.4 105.9C36 106.2 35.7 106.4 35.6 106.5C35.4 106.7 35.3 107 35.3 107.3C35.3 107.6 35.4 107.9 35.7 108.1C35.9 108.3 36.2 108.4 36.5 108.4C36.9 108.5 37.2 108.4 37.4 108.2ZM37.3 104.6C37.5 104.4 37.6 104.2 37.6 103.9C37.6 103.7 37.5 103.5 37.4 103.4C37.3 103.3 37.1 103.2 36.9 103.2C36.6 103.2 36.4 103.3 36.2 103.5C36.1 103.6 36.1 103.7 36.1 103.9C36.1 104.1 36.1 104.2 36.2 104.4C36.3 104.6 36.5 104.8 36.7 105C37 104.9 37.2 104.7 37.3 104.6Z" fill="#F2EDDC"/>
<path d="M47.4 102.5L48.6 107.7L50.1 102.5H51L52.5 107.8L53.7 102.5H54.7L53 109H52.1L50.6 103.6L49.1 109H48.2L46.5 102.5H47.4Z" fill="#F2EDDC"/>
<path d="M57.5 102.5H58.4V109H57.5V102.5Z" fill="#F2EDDC"/>
<path d="M61.6 102.5H62.5V108.2H65.7V109H61.6V102.5V102.5Z" fill="#F2EDDC"/>
<path d="M68.4 102.5H71C71.9 102.5 72.6 102.8 73 103.4C73.4 104 73.6 104.7 73.6 105.6C73.6 106.3 73.5 106.9 73.2 107.5C72.8 108.5 72 109 70.9 109H68.3V102.5H68.4ZM70.8 108.3C71.1 108.3 71.3 108.3 71.5 108.2C71.8 108.1 72.1 107.9 72.3 107.5C72.5 107.2 72.6 106.9 72.7 106.5C72.7 106.3 72.8 106 72.8 105.8C72.8 105 72.6 104.4 72.3 103.9C72 103.5 71.5 103.2 70.8 103.2H69.3V108.2H70.8V108.3Z" fill="#F2EDDC"/>
<path d="M76.7 102.5H77.6V108.2H80.8V109H76.7V102.5Z" fill="#F2EDDC"/>
<path d="M83.7 102.5H84.6V109H83.7V102.5Z" fill="#F2EDDC"/>
<path d="M87.9 102.5H92.4V103.3H88.8V105.3H92V106.1H88.8V109H87.9V102.5Z" fill="#F2EDDC"/>
<path d="M95.2 102.5H99.9V103.3H96V105.3H99.5V106H96V108.2H99.9V109H95.1V102.5H95.2Z" fill="#F2EDDC"/>
<path d="M107.3 102.5H110.2C110.7 102.5 111.1 102.6 111.4 102.7C112 103 112.3 103.5 112.3 104.2C112.3 104.6 112.2 104.9 112.1 105.1C112 105.3 111.7 105.5 111.4 105.7C111.7 105.8 111.8 105.9 112 106.1C112.1 106.3 112.2 106.5 112.2 106.9V107.8C112.2 108 112.2 108.2 112.3 108.3C112.4 108.5 112.4 108.6 112.6 108.7V108.8H111.5C111.5 108.7 111.4 108.7 111.4 108.6C111.4 108.5 111.4 108.3 111.4 108.1L111.3 107C111.3 106.6 111.1 106.3 110.8 106.2C110.6 106.1 110.4 106.1 110 106.1H108.1V108.9H107.2V102.5H107.3ZM110.1 105.5C110.5 105.5 110.8 105.4 111 105.3C111.2 105.1 111.3 104.8 111.3 104.4C111.3 103.9 111.1 103.6 110.8 103.5C110.6 103.4 110.4 103.4 110.1 103.4H108V105.6H110.1V105.5Z" fill="#F2EDDC"/>
<path d="M115.6 102.5H120.3V103.3H116.5V105.3H120V106H116.5V108.2H120.4V109H115.6V102.5V102.5Z" fill="#F2EDDC"/>
<path d="M123.3 102.5H124.6L126.5 108L128.3 102.5H129.5V109H128.7V105.2C128.7 105.1 128.7 104.9 128.7 104.5C128.7 104.1 128.7 103.9 128.7 103.5L126.9 108.9H126L124.1 103.5V103.7C124.1 103.9 124.1 104.1 124.1 104.4C124.1 104.7 124.1 105 124.1 105.1V108.9H123.3V102.5V102.5Z" fill="#F2EDDC"/>
<path d="M137.9 103.5C138.3 104.1 138.5 104.8 138.5 105.7C138.5 106.7 138.3 107.5 137.8 108.1C137.2 108.9 136.4 109.2 135.3 109.2C134.3 109.2 133.5 108.9 133 108.2C132.5 107.6 132.2 106.8 132.2 105.8C132.2 104.9 132.4 104.2 132.9 103.6C133.5 102.8 134.3 102.4 135.4 102.4C136.5 102.4 137.4 102.7 137.9 103.5ZM137.1 107.6C137.4 107 137.6 106.4 137.6 105.7C137.6 104.9 137.4 104.3 137 103.9C136.6 103.4 136.1 103.2 135.4 103.2C134.7 103.2 134.2 103.4 133.8 103.9C133.4 104.4 133.2 105 133.2 105.9C133.2 106.6 133.4 107.2 133.7 107.7C134.1 108.2 134.6 108.4 135.5 108.4C136.2 108.4 136.8 108.1 137.1 107.6Z" fill="#F2EDDC"/>
<path d="M141.9 102.5L143.8 108L145.6 102.5H146.6L144.2 109H143.3L140.9 102.5H141.9Z" fill="#F2EDDC"/>
<path d="M150.4 102.5H151.4L153.7 109H152.7L152 107.1H149.4L148.7 109H148L150.4 102.5ZM151.8 106.4L150.8 103.5L149.8 106.4H151.8Z" fill="#F2EDDC"/>
<path d="M156.3 102.5H157.2V108.2H160.4V109H156.3V102.5Z" fill="#F2EDDC"/>
<path d="M167.7 106.9C167.7 107.3 167.8 107.6 167.9 107.8C168.2 108.2 168.7 108.4 169.4 108.4C169.7 108.4 170 108.4 170.3 108.3C170.8 108.1 171.1 107.8 171.1 107.3C171.1 106.9 171 106.7 170.8 106.5C170.6 106.4 170.2 106.2 169.8 106.1L169 105.9C168.4 105.8 168.1 105.6 167.8 105.5C167.4 105.2 167.2 104.8 167.2 104.3C167.2 103.7 167.4 103.2 167.8 102.9C168.2 102.5 168.7 102.3 169.5 102.3C170.2 102.3 170.7 102.5 171.2 102.8C171.7 103.1 171.9 103.6 171.9 104.4H171.1C171.1 104.1 171 103.8 170.8 103.6C170.5 103.3 170.1 103.1 169.5 103.1C169 103.1 168.7 103.2 168.4 103.4C168.2 103.6 168.1 103.9 168.1 104.2C168.1 104.5 168.2 104.7 168.5 104.9C168.7 105 169 105.1 169.6 105.3L170.5 105.5C170.9 105.6 171.2 105.7 171.5 105.9C171.9 106.2 172.1 106.6 172.1 107.2C172.1 107.9 171.8 108.4 171.3 108.7C170.8 109 170.2 109.2 169.5 109.2C168.7 109.2 168.1 109 167.7 108.6C167.3 108.2 167 107.6 167 106.9H167.7V106.9Z" fill="#F2EDDC"/>
<path d="M175 102.5H177.9C178.5 102.5 178.9 102.7 179.3 103C179.7 103.3 179.8 103.8 179.8 104.4C179.8 104.9 179.6 105.3 179.3 105.7C179 106.1 178.5 106.3 177.9 106.3H175.9V109H175V102.5ZM178.4 103.4C178.2 103.3 177.9 103.3 177.6 103.3H175.9V105.5H177.6C178 105.5 178.3 105.4 178.5 105.2C178.7 105 178.9 104.7 178.9 104.3C178.9 103.9 178.7 103.6 178.4 103.4Z" fill="#F2EDDC"/>
<path d="M182.8 102.5H187.5V103.3H183.7V105.3H187.2V106H183.7V108.2H187.6V109H182.8V102.5V102.5Z" fill="#F2EDDC"/>
<path d="M195.1 103C195.5 103.4 195.8 103.9 195.8 104.5H195C194.9 104.1 194.7 103.8 194.4 103.5C194.1 103.2 193.7 103.1 193.2 103.1C192.6 103.1 192.1 103.3 191.7 103.8C191.3 104.3 191.1 104.9 191.1 105.9C191.1 106.7 191.3 107.3 191.6 107.7C191.9 108.1 192.5 108.4 193.2 108.4C193.8 108.4 194.3 108.2 194.6 107.7C194.8 107.4 194.9 107.1 195 106.7H195.9C195.8 107.4 195.6 107.9 195.2 108.4C194.7 109 194 109.2 193.2 109.2C192.5 109.2 191.8 109 191.3 108.5C190.6 107.9 190.3 107 190.3 105.7C190.3 104.7 190.5 104 191 103.4C191.5 102.7 192.3 102.4 193.2 102.4C194 102.4 194.6 102.6 195.1 103Z" fill="#F2EDDC"/>
<path d="M199 102.5H199.9V109H199V102.5Z" fill="#F2EDDC"/>
<path d="M205 102.5H206L208.3 109H207.3L206.6 107.1H204L203.3 109H202.4L205 102.5ZM206.4 106.4L205.4 103.5L204.4 106.4H206.4Z" fill="#F2EDDC"/>
<path d="M210.9 102.5H211.8V108.2H215V109H210.9V102.5V102.5Z" fill="#F2EDDC"/>
<path d="M217.9 102.5H218.8V109H217.9V102.5Z" fill="#F2EDDC"/>
<path d="M222.6 106.9C222.6 107.3 222.7 107.6 222.8 107.8C223.1 108.2 223.6 108.4 224.3 108.4C224.6 108.4 224.9 108.4 225.2 108.3C225.7 108.1 226 107.8 226 107.3C226 106.9 225.9 106.7 225.7 106.5C225.5 106.4 225.1 106.2 224.7 106.1L223.9 105.9C223.3 105.8 223 105.6 222.7 105.5C222.3 105.2 222.1 104.8 222.1 104.3C222.1 103.7 222.3 103.2 222.7 102.9C223.1 102.5 223.6 102.3 224.4 102.3C225.1 102.3 225.6 102.5 226.1 102.8C226.6 103.1 226.8 103.6 226.8 104.4H226C226 104.1 225.9 103.8 225.7 103.6C225.4 103.3 225 103.1 224.4 103.1C223.9 103.1 223.5 103.2 223.3 103.4C223.1 103.6 223 103.9 223 104.2C223 104.5 223.1 104.7 223.4 104.9C223.6 105 223.9 105.1 224.5 105.3L225.4 105.5C225.8 105.6 226.2 105.7 226.4 105.9C226.8 106.2 227 106.6 227 107.2C227 107.9 226.7 108.4 226.2 108.7C225.7 109 225.1 109.2 224.4 109.2C223.6 109.2 223 109 222.6 108.6C222.2 108.2 221.9 107.6 221.9 106.9H222.6V106.9Z" fill="#F2EDDC"/>
<path d="M234.5 102.5V103.3H232.3V109H231.4V103.3H229.2V102.5H234.5Z" fill="#F2EDDC"/>
</svg>
